<svg width="160" height="160" viewBox="0 0 160 160" fill="none" xmlns="http://www.w3.org/2000/svg">
<path d="M70.3066 114.72C69.7686 114.595 69.2313 114.93 69.1066 115.468C68.9818 116.006 69.3168 116.543 69.8548 116.668L70.3066 114.72ZM78.1536 117.566L77.9277 118.54C77.9804 118.553 78.034 118.56 78.088 118.564L78.1536 117.566ZM95.9423 118.735L96.2677 117.79C96.1838 117.761 96.0964 117.743 96.0079 117.737L95.9423 118.735ZM79.4135 127.689L79.3843 128.688C79.394 128.689 79.4038 128.689 79.4135 128.689V127.689ZM79.299 102.791L79.5137 103.768C79.783 103.708 80.0158 103.541 80.1573 103.304L79.299 102.791ZM91.6294 82.1664L92.4877 82.6795C92.5388 82.594 92.5769 82.5014 92.6006 82.4047L91.6294 82.1664ZM123.226 84.7099L122.994 85.6827C122.999 85.6838 123.004 85.6849 123.009 85.686L123.226 84.7099ZM100.492 91.0252L100.634 90.0353C100.168 89.9684 99.7181 90.236 99.5545 90.6778L100.492 91.0252ZM93.2093 110.686L94.0148 111.278C94.0701 111.203 94.1146 111.121 94.147 111.033L93.2093 110.686ZM89.1677 113.849C88.7332 114.19 88.6573 114.818 88.9982 115.253C89.3392 115.687 89.9678 115.763 90.4023 115.422L89.1677 113.849ZM85.164 80.6458L85.393 79.6723C85.333 79.6582 85.2718 79.6497 85.2103 79.6468L85.164 80.6458ZM71.0092 104.059C70.8393 104.585 71.1276 105.148 71.6531 105.318C72.1786 105.488 72.7424 105.2 72.9122 104.674L71.0092 104.059ZM111.256 104.818C111.508 104.326 111.313 103.724 110.821 103.472C110.33 103.221 109.727 103.416 109.476 103.908L111.256 104.818ZM109.659 117.523C110.05 117.913 110.683 117.913 111.074 117.522C111.464 117.132 111.464 116.499 111.073 116.108L109.659 117.523ZM56.1862 90.1049H57.1862C57.1862 89.8285 57.0718 89.5644 56.8702 89.3754C56.6685 89.1864 56.3976 89.0892 56.1218 89.107L56.1862 90.1049ZM50.7437 64.8279L49.7823 64.553C49.7567 64.6424 49.7437 64.7349 49.7437 64.8279H50.7437ZM61.9763 55.6136L62.5714 54.8099C62.3992 54.6824 62.1906 54.6136 61.9763 54.6136V55.6136ZM67.4266 59.65L66.8315 60.4536C67.1926 60.7211 67.6878 60.7148 68.042 60.4382L67.4266 59.65ZM72.5966 55.6136L72.7331 54.6229C72.4654 54.586 72.1942 54.659 71.9812 54.8253L72.5966 55.6136ZM71.9568 66.4069C71.4045 66.4069 70.9568 66.8546 70.9568 67.4069C70.9568 67.9592 71.4045 68.4069 71.9568 68.4069V66.4069ZM75.9063 68.4069C76.4586 68.4069 76.9063 67.9592 76.9063 67.4069C76.9063 66.8546 76.4586 66.4069 75.9063 66.4069V68.4069ZM46.5407 114.64C46.5407 120.099 42.115 124.524 36.6557 124.524V126.524C43.2196 126.524 48.5407 121.203 48.5407 114.64H46.5407ZM36.6557 124.524C31.1964 124.524 26.7708 120.099 26.7708 114.64H24.7708C24.7708 121.203 30.0918 126.524 36.6557 126.524V124.524ZM26.7708 114.64C26.7708 109.18 31.1964 104.755 36.6557 104.755V102.755C30.0918 102.755 24.7708 108.076 24.7708 114.64H26.7708ZM36.6557 104.755C42.115 104.755 46.5407 109.18 46.5407 114.64H48.5407C48.5407 108.076 43.2196 102.755 36.6557 102.755V104.755ZM134.382 110.714C134.382 119.29 127.43 126.243 118.854 126.243V128.243C128.535 128.243 136.382 120.395 136.382 110.714H134.382ZM118.854 126.243C110.277 126.243 103.325 119.29 103.325 110.714H101.325C101.325 120.395 109.173 128.243 118.854 128.243V126.243ZM103.325 110.714C103.325 102.137 110.277 95.1848 118.854 95.1848V93.1848C109.173 93.1848 101.325 101.033 101.325 110.714H103.325ZM118.854 95.1848C127.43 95.1848 134.382 102.137 134.382 110.714H136.382C136.382 101.033 128.535 93.1848 118.854 93.1848V95.1848ZM76.2847 40.704C76.2847 45.594 72.3206 49.5581 67.4306 49.5581V51.5581C73.4251 51.5581 78.2847 46.6986 78.2847 40.704H76.2847ZM67.4306 49.5581C62.5406 49.5581 58.5765 45.594 58.5765 40.704H56.5765C56.5765 46.6986 61.436 51.5581 67.4306 51.5581V49.5581ZM58.5765 40.704C58.5765 35.814 62.5406 31.8499 67.4306 31.8499V29.8499C61.436 29.8499 56.5765 34.7095 56.5765 40.704H58.5765ZM67.4306 31.8499C72.3206 31.8499 76.2847 35.814 76.2847 40.704H78.2847C78.2847 34.7095 73.4251 29.8499 67.4306 29.8499V31.8499ZM69.8548 116.668L77.9277 118.54L78.3795 116.592L70.3066 114.72L69.8548 116.668ZM78.088 118.564L95.8768 119.733L96.0079 117.737L78.2192 116.568L78.088 118.564ZM95.9423 118.735C95.617 119.681 95.6167 119.681 95.6164 119.681C95.6163 119.681 95.616 119.68 95.6158 119.68C95.6155 119.68 95.6152 119.68 95.615 119.68C95.6145 119.68 95.6142 119.68 95.6141 119.68C95.614 119.68 95.6147 119.68 95.6162 119.681C95.6191 119.682 95.6253 119.684 95.6343 119.687C95.6525 119.694 95.6824 119.705 95.7223 119.721C95.8024 119.754 95.9217 119.804 96.067 119.874C96.3604 120.015 96.7459 120.227 97.1256 120.514C97.9035 121.1 98.5127 121.879 98.5127 122.89H100.513C100.513 120.975 99.3368 119.676 98.3295 118.917C97.8166 118.53 97.3095 118.252 96.9334 118.072C96.744 117.981 96.5844 117.912 96.4692 117.866C96.4115 117.843 96.3647 117.825 96.3306 117.812C96.3135 117.806 96.2996 117.801 96.289 117.797C96.2837 117.795 96.2793 117.794 96.2757 117.792C96.2739 117.792 96.2724 117.791 96.271 117.791C96.2704 117.791 96.2697 117.79 96.2692 117.79C96.2689 117.79 96.2685 117.79 96.2684 117.79C96.268 117.79 96.2677 117.79 95.9423 118.735ZM98.5127 122.89C98.5127 124.039 97.9972 125.001 97.3299 125.693C96.9966 126.038 96.64 126.299 96.3232 126.47C95.986 126.651 95.7707 126.689 95.7093 126.689V128.689C96.2325 128.689 96.7849 128.492 97.2705 128.231C97.7764 127.959 98.2975 127.57 98.769 127.081C99.7111 126.105 100.513 124.668 100.513 122.89H98.5127ZM95.7093 126.689H79.4135V128.689H95.7093V126.689ZM79.4135 127.689C79.4427 126.689 79.4427 126.689 79.4427 126.689C79.4426 126.689 79.4424 126.689 79.4422 126.689C79.4417 126.689 79.4408 126.689 79.4396 126.689C79.4373 126.689 79.4336 126.689 79.4286 126.689C79.4187 126.688 79.4035 126.688 79.3832 126.687C79.3428 126.686 79.2821 126.684 79.2024 126.681C79.043 126.675 78.8077 126.666 78.5064 126.652C77.9037 126.624 77.0375 126.578 75.987 126.507C73.8843 126.364 71.0515 126.118 68.1203 125.707C65.182 125.295 62.1799 124.722 59.7246 123.934C58.497 123.54 57.4345 123.101 56.5951 122.618C55.7462 122.13 55.1935 121.635 54.8985 121.161L53.2005 122.218C53.7389 123.083 54.6038 123.78 55.5977 124.352C56.6012 124.929 57.8068 125.419 59.1133 125.838C61.7262 126.677 64.8567 127.269 67.8427 127.688C70.8359 128.107 73.719 128.357 75.8513 128.502C76.9182 128.575 77.7992 128.621 78.4143 128.65C78.7219 128.664 78.9632 128.673 79.1282 128.68C79.2106 128.683 79.2741 128.685 79.3172 128.686C79.3387 128.687 79.3552 128.687 79.3664 128.688C79.372 128.688 79.3764 128.688 79.3793 128.688C79.3808 128.688 79.382 128.688 79.3828 128.688C79.3832 128.688 79.3836 128.688 79.3838 128.688C79.3841 128.688 79.3843 128.688 79.4135 127.689ZM54.8985 121.161C53.3777 118.718 52.9586 115.628 53.7425 113.032C54.5127 110.482 56.4393 108.398 59.7268 107.812L59.3756 105.843C55.2894 106.572 52.7985 109.241 51.8279 112.454C50.871 115.622 51.3879 119.306 53.2005 122.218L54.8985 121.161ZM59.7268 107.812C63.43 107.151 68.3798 106.139 72.3961 105.294C74.406 104.872 76.185 104.49 77.4616 104.214C78.0999 104.076 78.6127 103.964 78.9661 103.887C79.1427 103.849 79.2795 103.819 79.3722 103.799C79.4186 103.788 79.4539 103.781 79.4777 103.775C79.4895 103.773 79.4985 103.771 79.5046 103.77C79.5076 103.769 79.5099 103.768 79.5114 103.768C79.5122 103.768 79.5127 103.768 79.5131 103.768C79.5133 103.768 79.5135 103.768 79.5136 103.768C79.5137 103.768 79.5137 103.768 79.299 102.791C79.0842 101.814 79.0841 101.814 79.0841 101.814C79.084 101.814 79.0838 101.814 79.0837 101.814C79.0833 101.814 79.0827 101.815 79.082 101.815C79.0805 101.815 79.0783 101.816 79.0754 101.816C79.0694 101.817 79.0606 101.819 79.0488 101.822C79.0253 101.827 78.9902 101.835 78.9442 101.845C78.852 101.865 78.7157 101.895 78.5397 101.933C78.1875 102.01 77.676 102.122 77.039 102.259C75.7651 102.535 73.9898 102.915 71.9844 103.337C67.9703 104.182 63.0463 105.188 59.3756 105.843L59.7268 107.812ZM80.1573 103.304L92.4877 82.6795L90.7711 81.6532L78.4407 102.278L80.1573 103.304ZM91.6294 82.1664C92.6006 82.4047 92.6005 82.4053 92.6003 82.4058C92.6003 82.406 92.6002 82.4065 92.6001 82.4068C92.6 82.4074 92.5998 82.4079 92.5997 82.4084C92.5995 82.4093 92.5993 82.41 92.5992 82.4103C92.599 82.4111 92.5991 82.4106 92.5995 82.4092C92.6003 82.4062 92.6023 82.3988 92.6056 82.3875C92.6121 82.3648 92.6237 82.3264 92.6411 82.2749C92.6761 82.1714 92.7339 82.0174 92.82 81.8337C92.994 81.4627 93.2736 80.9921 93.6968 80.5687C94.487 79.7782 95.9148 79.006 98.5696 79.7088L99.0814 77.7754C95.7684 76.8984 93.5982 77.8383 92.2823 79.1549C91.6524 79.785 91.252 80.4667 91.0092 80.9846C90.887 81.2453 90.8021 81.4699 90.7466 81.634C90.7188 81.7162 90.6982 81.7837 90.6838 81.8336C90.6766 81.8585 90.671 81.8791 90.6668 81.8949C90.6646 81.9029 90.6629 81.9096 90.6615 81.9151C90.6608 81.9179 90.6602 81.9203 90.6596 81.9225C90.6594 81.9235 90.6591 81.9245 90.6589 81.9255C90.6588 81.9259 90.6586 81.9265 90.6586 81.9268C90.6584 81.9274 90.6583 81.928 91.6294 82.1664ZM98.5696 79.7088C101.566 80.502 107.678 81.9967 113.029 83.2904C115.707 83.9379 118.198 84.5359 120.02 84.9721C120.931 85.1902 121.674 85.3678 122.19 85.4909C122.448 85.5525 122.649 85.6004 122.785 85.6329C122.854 85.6492 122.906 85.6616 122.941 85.67C122.959 85.6742 122.972 85.6774 122.981 85.6795C122.985 85.6805 122.989 85.6813 122.991 85.6819C122.992 85.6821 122.993 85.6823 122.993 85.6825C122.994 85.6825 122.994 85.6826 122.994 85.6826C122.994 85.6827 122.994 85.6827 123.226 84.7099C123.457 83.737 123.457 83.737 123.457 83.737C123.457 83.737 123.457 83.7369 123.457 83.7368C123.456 83.7367 123.455 83.7365 123.454 83.7363C123.452 83.7357 123.448 83.7349 123.444 83.7339C123.435 83.7318 123.422 83.7286 123.404 83.7244C123.369 83.7161 123.317 83.7037 123.249 83.6874C123.113 83.6549 122.912 83.6071 122.654 83.5455C122.139 83.4225 121.396 83.245 120.485 83.027C118.664 82.5911 116.175 81.9934 113.499 81.3464C108.141 80.0512 102.053 78.562 99.0814 77.7754L98.5696 79.7088ZM123.226 84.7099C123.009 85.686 123.008 85.6859 123.008 85.6858C123.007 85.6857 123.007 85.6856 123.007 85.6855C123.006 85.6854 123.005 85.6853 123.005 85.6851C123.004 85.6849 123.003 85.6847 123.002 85.6845C123.001 85.6842 123 85.684 123 85.684C123 85.684 123.002 85.6846 123.008 85.686C123.018 85.6887 123.038 85.6943 123.067 85.7032C123.126 85.7211 123.217 85.7522 123.331 85.8001C123.561 85.8969 123.867 86.057 124.172 86.3064C124.752 86.7816 125.385 87.6257 125.385 89.1847H127.385C127.385 86.9718 126.439 85.5785 125.439 84.7593C124.954 84.3615 124.471 84.1101 124.108 83.9571C123.925 83.8802 123.77 83.8269 123.656 83.7917C123.598 83.774 123.551 83.7608 123.515 83.7514C123.497 83.7467 123.482 83.7429 123.47 83.74C123.464 83.7385 123.459 83.7373 123.454 83.7362C123.452 83.7357 123.45 83.7353 123.448 83.7348C123.447 83.7346 123.446 83.7344 123.445 83.7342C123.445 83.7342 123.444 83.734 123.444 83.734C123.444 83.7339 123.443 83.7337 123.226 84.7099ZM125.385 89.1847C125.385 92.4462 123.422 93.0979 122.961 93.0979V95.0979C124.609 95.0979 127.385 93.4669 127.385 89.1847H125.385ZM122.961 93.0979C122.972 93.0979 122.954 93.098 122.885 93.0924C122.824 93.0875 122.743 93.0797 122.639 93.0689C122.433 93.0472 122.155 93.015 121.814 92.9733C121.133 92.89 120.215 92.7705 119.138 92.6266C116.985 92.339 114.212 91.9552 111.47 91.5712C108.728 91.1873 106.019 90.8033 103.996 90.5153C102.984 90.3713 102.143 90.2513 101.556 90.1673C101.262 90.1253 101.032 90.0923 100.875 90.0698C100.796 90.0585 100.736 90.0499 100.696 90.0441C100.675 90.0412 100.66 90.039 100.65 90.0375C100.645 90.0368 100.641 90.0362 100.638 90.0359C100.637 90.0357 100.636 90.0356 100.635 90.0355C100.635 90.0354 100.635 90.0354 100.634 90.0354C100.634 90.0353 100.634 90.0353 100.492 91.0252C100.35 92.015 100.35 92.0151 100.35 92.0151C100.351 92.0151 100.351 92.0151 100.351 92.0152C100.352 92.0153 100.353 92.0154 100.354 92.0156C100.357 92.016 100.361 92.0165 100.366 92.0173C100.376 92.0188 100.391 92.021 100.412 92.0239C100.452 92.0297 100.513 92.0383 100.591 92.0496C100.748 92.0721 100.979 92.1051 101.273 92.1471C101.861 92.2312 102.702 92.3513 103.714 92.4953C105.738 92.7835 108.449 93.1677 111.193 93.5519C113.936 93.9361 116.714 94.3205 118.873 94.609C119.952 94.7532 120.879 94.8738 121.571 94.9585C122.22 95.0379 122.751 95.0979 122.961 95.0979V93.0979ZM99.5545 90.6778L92.2715 110.339L94.147 111.033L101.43 91.3725L99.5545 90.6778ZM93.2093 110.686C92.4037 110.094 92.4037 110.094 92.4037 110.093C92.4037 110.093 92.4037 110.093 92.4037 110.094C92.4037 110.094 92.4036 110.094 92.4035 110.094C92.4034 110.094 92.403 110.094 92.4026 110.095C92.4017 110.096 92.4003 110.098 92.3984 110.101C92.3946 110.106 92.3887 110.114 92.3809 110.124C92.3653 110.145 92.3419 110.177 92.3116 110.217C92.2509 110.299 92.1623 110.416 92.0519 110.561C91.831 110.851 91.5243 111.246 91.1808 111.67C90.4686 112.549 89.6795 113.447 89.1677 113.849L90.4023 115.422C91.1188 114.86 92.0418 113.784 92.7347 112.929C93.0937 112.486 93.4128 112.075 93.642 111.774C93.7567 111.624 93.8493 111.501 93.9134 111.415C93.9455 111.372 93.9705 111.338 93.9877 111.315C93.9963 111.304 94.0029 111.295 94.0074 111.289C94.0097 111.285 94.0115 111.283 94.0127 111.281C94.0133 111.281 94.0138 111.28 94.0142 111.279C94.0144 111.279 94.0145 111.279 94.0146 111.279C94.0147 111.279 94.0147 111.279 94.0148 111.279C94.0148 111.279 94.0148 111.278 93.2093 110.686ZM91.8584 81.1929L85.393 79.6723L84.9351 81.6192L91.4005 83.1398L91.8584 81.1929ZM85.164 80.6458C85.2103 79.6468 85.2097 79.6468 85.2091 79.6468C85.2089 79.6468 85.2082 79.6468 85.2078 79.6467C85.2068 79.6467 85.2058 79.6466 85.2047 79.6466C85.2026 79.6465 85.2001 79.6464 85.1973 79.6463C85.1917 79.6461 85.1849 79.6459 85.1769 79.6457C85.1609 79.6452 85.14 79.6448 85.1145 79.6446C85.0635 79.6442 84.994 79.6448 84.9081 79.6478C84.7364 79.6539 84.4977 79.6703 84.2084 79.7101C83.6313 79.7897 82.843 79.9643 81.9805 80.3459C80.229 81.1207 78.2384 82.7221 77.0863 85.9234L78.9681 86.6007C79.9211 83.9527 81.4989 82.7459 82.7896 82.1749C83.4482 81.8836 84.0494 81.7509 84.4815 81.6914C84.6968 81.6617 84.8677 81.6505 84.9794 81.6466C85.0351 81.6446 85.0758 81.6444 85.0996 81.6446C85.1114 81.6446 85.119 81.6448 85.1222 81.6449C85.1237 81.645 85.1242 81.645 85.1234 81.6449C85.1231 81.6449 85.1224 81.6449 85.1215 81.6449C85.121 81.6449 85.1205 81.6448 85.1199 81.6448C85.1195 81.6448 85.119 81.6448 85.1189 81.6448C85.1183 81.6447 85.1178 81.6447 85.164 80.6458ZM77.0863 85.9234C76.0287 88.862 74.5083 93.3998 73.255 97.1942C72.6277 99.0933 72.0664 100.809 71.6618 102.051C71.4595 102.671 71.2964 103.173 71.1838 103.52C71.1276 103.694 71.0839 103.828 71.0543 103.92C71.0395 103.965 71.0283 104 71.0207 104.024C71.0169 104.035 71.014 104.044 71.0121 104.05C71.0111 104.053 71.0104 104.055 71.0099 104.057C71.0097 104.058 71.0095 104.058 71.0094 104.059C71.0093 104.059 71.0093 104.059 71.0092 104.059C71.0092 104.059 71.0092 104.059 71.9607 104.367C72.9122 104.674 72.9122 104.674 72.9123 104.674C72.9123 104.674 72.9123 104.674 72.9124 104.674C72.9125 104.673 72.9127 104.673 72.9129 104.672C72.9134 104.671 72.9141 104.668 72.9151 104.666C72.917 104.66 72.9198 104.651 72.9236 104.639C72.9311 104.616 72.9423 104.581 72.9571 104.536C72.9865 104.445 73.0301 104.31 73.0862 104.137C73.1985 103.791 73.3614 103.29 73.5633 102.67C73.9673 101.431 74.5279 99.7175 75.1541 97.8215C76.4078 94.0259 77.9206 89.5113 78.9681 86.6007L77.0863 85.9234ZM110.366 104.363C109.476 103.908 109.476 103.908 109.475 103.908C109.475 103.908 109.475 103.909 109.475 103.909C109.475 103.91 109.474 103.91 109.474 103.911C109.473 103.913 109.472 103.915 109.47 103.918C109.468 103.923 109.464 103.931 109.459 103.94C109.45 103.959 109.437 103.985 109.42 104.019C109.387 104.087 109.341 104.185 109.284 104.309C109.17 104.557 109.015 104.912 108.843 105.351C108.499 106.225 108.084 107.445 107.806 108.811C107.263 111.477 107.178 115.044 109.659 117.523L111.073 116.108C109.34 114.377 109.255 111.718 109.766 109.21C110.014 107.989 110.389 106.885 110.704 106.082C110.861 105.682 111.002 105.361 111.102 105.142C111.153 105.032 111.192 104.948 111.219 104.893C111.233 104.866 111.243 104.846 111.249 104.833C111.252 104.827 111.254 104.822 111.256 104.82C111.256 104.818 111.257 104.818 111.257 104.817C111.257 104.817 111.257 104.817 111.257 104.817C111.257 104.817 111.257 104.818 111.257 104.818C111.257 104.818 111.256 104.818 110.366 104.363ZM57.1862 102.218V90.1049H55.1862V102.218H57.1862ZM56.1862 90.1049C56.1218 89.107 56.1221 89.107 56.1224 89.107C56.1225 89.107 56.1228 89.107 56.123 89.1069C56.1233 89.1069 56.1235 89.1069 56.1237 89.1069C56.124 89.1069 56.124 89.1069 56.1237 89.1069C56.123 89.1069 56.1212 89.107 56.1181 89.1072C56.1119 89.1075 56.1008 89.1081 56.0853 89.1087C56.0541 89.1099 56.0051 89.1115 55.9408 89.1122C55.8117 89.1137 55.6229 89.112 55.3948 89.0985C54.9326 89.0713 54.337 88.9974 53.7578 88.82C53.1732 88.6409 52.6684 88.3759 52.3176 88.0083C51.9896 87.6645 51.7437 87.1789 51.7437 86.42H49.7437C49.7437 87.6794 50.1783 88.6634 50.8707 89.389C51.5404 90.0908 52.3961 90.4947 53.1722 90.7323C53.9536 90.9716 54.7186 91.0621 55.2769 91.0951C55.559 91.1117 55.7954 91.114 55.964 91.1121C56.0484 91.1111 56.1163 91.109 56.1649 91.1071C56.1892 91.1061 56.2088 91.1052 56.2232 91.1044C56.2304 91.1041 56.2363 91.1037 56.2409 91.1035C56.2432 91.1033 56.2451 91.1032 56.2468 91.1031C56.2476 91.1031 56.2483 91.103 56.249 91.103C56.2493 91.1029 56.2497 91.1029 56.2499 91.1029C56.2503 91.1029 56.2507 91.1029 56.1862 90.1049ZM51.7437 86.42V64.8279H49.7437V86.42H51.7437ZM50.7437 64.8279C51.7052 65.1027 51.7051 65.1031 51.705 65.1034C51.705 65.1035 51.7049 65.1038 51.7049 65.1039C51.7048 65.1042 51.7048 65.1043 51.7048 65.1043C51.7048 65.1043 51.7049 65.1037 51.7053 65.1026C51.7059 65.1004 51.7072 65.096 51.7091 65.0896C51.713 65.0767 51.7195 65.0555 51.7287 65.0266C51.747 64.9686 51.7762 64.8798 51.8168 64.7644C51.8982 64.5335 52.0255 64.1977 52.2045 63.7919C52.5639 62.9779 53.1257 61.8971 53.9347 60.822C55.5489 58.6768 58.0916 56.6136 61.9763 56.6136V54.6136C57.2628 54.6136 54.1892 57.1574 52.3366 59.6194C51.4123 60.8479 50.7782 62.0707 50.3749 62.9843C50.1726 63.4424 50.0269 63.8264 49.9306 64.0994C49.8825 64.236 49.8466 64.3451 49.8222 64.4222C49.81 64.4607 49.8006 64.4913 49.794 64.5132C49.7907 64.5242 49.7881 64.5331 49.7861 64.5397C49.7851 64.543 49.7843 64.5458 49.7837 64.548C49.7834 64.5491 49.7831 64.5501 49.7829 64.5509C49.7827 64.5513 49.7826 64.5518 49.7825 64.552C49.7824 64.5525 49.7823 64.553 50.7437 64.8279ZM61.3811 56.4172L66.8315 60.4536L68.0218 58.8464L62.5714 54.8099L61.3811 56.4172ZM68.042 60.4382L73.212 56.4018L71.9812 54.8253L66.8112 58.8618L68.042 60.4382ZM72.5966 55.6136C72.46 56.6042 72.4597 56.6041 72.4594 56.6041C72.4594 56.6041 72.4591 56.6041 72.4591 56.6041C72.4589 56.604 72.4589 56.604 72.4591 56.6041C72.4594 56.6041 72.4605 56.6043 72.4621 56.6045C72.4655 56.605 72.4714 56.6058 72.4799 56.6071C72.4968 56.6097 72.5238 56.6138 72.5602 56.6198C72.633 56.6317 72.7433 56.6508 72.8857 56.6783C73.1708 56.7334 73.5831 56.8221 74.08 56.9548C75.0777 57.2213 76.396 57.66 77.7041 58.3476C80.3297 59.7279 82.7422 62.0018 82.7422 65.7955H84.7422C84.7422 60.9436 81.5819 58.1266 78.6347 56.5773C77.1563 55.8001 75.6883 55.3143 74.5962 55.0226C74.0481 54.8762 73.5897 54.7773 73.2652 54.7146C73.1029 54.6833 72.9737 54.6609 72.8833 54.6461C72.8381 54.6387 72.8025 54.6331 72.7772 54.6293C72.7646 54.6274 72.7546 54.626 72.7472 54.6249C72.7435 54.6244 72.7405 54.624 72.7381 54.6236C72.737 54.6235 72.736 54.6233 72.7351 54.6232C72.7347 54.6231 72.7342 54.6231 72.734 54.623C72.7335 54.623 72.7331 54.6229 72.5966 55.6136ZM82.7422 65.7955V77.1623H84.7422V65.7955H82.7422ZM71.9568 68.4069H75.9063V66.4069H71.9568V68.4069Z" fill="white"/>
</svg>
