<svg width="160" height="160" viewBox="0 0 160 160" fill="none" xmlns="http://www.w3.org/2000/svg">
<path d="M112.4 89.4374C112.4 89.4374 101.049 92.0165 98.474 92.4233C95.8989 92.8301 92.3877 94.1176 92.3877 97.9803V115.418C92.3877 115.418 93.3238 119.983 97.1864 119.983C101.049 119.983 101.867 116.942 101.867 114.6C101.867 112.258 102.392 101.61 102.392 101.61L111.796 99.9116M72.1424 70.3177C72.1424 75.6814 67.7942 80.0296 62.4304 80.0296C57.0667 80.0296 52.7185 75.6814 52.7185 70.3177C52.7185 64.9539 57.0667 60.6058 62.4304 60.6058C67.7942 60.6058 72.1424 64.9539 72.1424 70.3177ZM109.138 52.6079C109.138 57.9717 104.79 62.3199 99.4258 62.3199C94.0621 62.3199 89.7139 57.9717 89.7139 52.6079C89.7139 47.2442 94.0621 42.896 99.4258 42.896C104.79 42.896 109.138 47.2442 109.138 52.6079ZM49.5589 94.5876L70.1557 106.172C70.1557 106.172 73.3154 108.044 76.242 104.766C79.1686 101.488 73.3154 97.1588 72.1463 96.1043L52.7185 81.3606C52.7185 81.3606 48.5043 78.434 45.5817 78.434C42.659 78.434 36.4543 81.0091 30.838 88.9674C25.2218 96.9258 20.6561 104.414 21.1261 110.966C21.5961 117.519 25.3403 120.445 31.8925 120.564C38.4448 120.682 52.1379 118.925 57.1696 118.925C62.2014 118.925 78.8171 120.568 78.8171 120.568C78.8171 120.568 82.4467 120.094 82.4467 115.998C82.4467 111.902 77.2965 110.848 77.2965 110.848C77.2965 110.848 62.0829 108.04 58.2202 107.688C54.3576 107.337 39.0294 106.282 39.0294 106.282L49.5628 94.5797L49.5589 94.5876ZM120.477 110.153L134.755 110.97C134.755 110.97 138.499 111.555 138.499 115.769C138.499 119.983 135.106 120.572 135.106 120.572H110.532C110.532 120.572 106.085 119.284 106.085 115.362C106.085 111.44 114.628 93.8846 114.628 93.8846L108.308 81.2461C108.308 81.2461 102.692 86.9808 101.053 88.3829C99.414 89.785 85.2548 92.7116 85.2548 92.7116C85.2548 92.7116 81.5107 93.7661 79.7531 90.1365C77.9956 86.5069 83.8488 84.6348 83.8488 84.6348L95.4328 80.5391L103.976 67.1975C103.976 67.1975 106.199 64.2709 111.701 64.2709C117.203 64.2709 119.189 67.5491 119.189 67.5491C119.189 67.5491 128.901 81.9412 129.604 87.7944C130.307 93.6477 129.956 96.6888 127.614 100.2C125.272 103.711 120.477 110.149 120.477 110.149V110.153Z" stroke="white" stroke-width="2" stroke-linejoin="round"/>
</svg>
