<svg width="160" height="160" viewBox="0 0 160 160" fill="none" xmlns="http://www.w3.org/2000/svg">
<path d="M25.1744 96.3294L24.2054 96.0822C24.1959 96.1196 24.1885 96.1575 24.1834 96.1958L25.1744 96.3294ZM59.5236 111.306L58.6025 111.695C58.7455 112.034 59.0624 112.266 59.4279 112.301L59.5236 111.306ZM75.9655 112.886L76.1954 111.913C76.1512 111.902 76.1064 111.895 76.0612 111.89L75.9655 112.886ZM76.1433 123.475V124.475C76.2193 124.475 76.2951 124.466 76.3692 124.449L76.1433 123.475ZM53.7928 123.475V122.475C53.7469 122.475 53.701 122.478 53.6556 122.484L53.7928 123.475ZM68.9433 92.996L69.3508 92.0828C68.9007 91.882 68.3715 92.0389 68.1037 92.4527L68.9433 92.996ZM86.0961 100.65L86.9423 101.183C87.0968 100.938 87.1372 100.637 87.0531 100.36C86.9689 100.082 86.7684 99.8552 86.5036 99.737L86.0961 100.65ZM75.0712 107.134C74.8742 106.618 74.2963 106.36 73.7803 106.557C73.2643 106.753 73.0057 107.331 73.2026 107.847L75.0712 107.134ZM75.2919 113.321C75.4889 113.837 76.0668 114.096 76.5828 113.899C77.0988 113.702 77.3574 113.124 77.1605 112.608L75.2919 113.321ZM93.7055 115.893C93.6603 116.443 94.0699 116.926 94.6203 116.971C95.1707 117.016 95.6536 116.607 95.6988 116.056L93.7055 115.893ZM96.6928 91.7519L97.6894 91.8338C97.7158 91.5128 97.5859 91.1988 97.3406 90.9901L96.6928 91.7519ZM85.2233 76.8265L86.113 76.37L86.113 76.37L85.2233 76.8265ZM106.053 79.6979L106.524 78.8157L106.524 78.8156L106.053 79.6979ZM130.746 91.6926L131.536 91.0795L131.536 91.0792L130.746 91.6926ZM131.164 115.82C131.079 116.366 131.452 116.877 131.997 116.962C132.543 117.048 133.055 116.674 133.14 116.129L131.164 115.82ZM72.692 55.076L72.9947 56.0291L72.9948 56.0291L72.692 55.076ZM72.6958 55.0748L72.3931 54.1217L72.393 54.1218L72.6958 55.0748ZM78.3103 57.9826L79.2634 57.6799L79.2634 57.6799L78.3103 57.9826ZM79.018 60.2111L78.065 60.5138L78.065 60.5138L79.018 60.2111ZM76.1103 65.8255L76.413 66.7786L76.413 66.7786L76.1103 65.8255ZM76.1065 65.8267L75.8038 64.8736L75.8038 64.8736L76.1065 65.8267ZM70.492 62.9189L71.4451 62.6162L71.4451 62.6162L70.492 62.9189ZM69.7843 60.6905L68.8312 60.9932L68.8312 60.9932L69.7843 60.6905ZM89.9305 49.6009L89.6281 48.6477L89.6278 48.6478L89.9305 49.6009ZM89.9343 49.5997L90.2367 50.5529L90.237 50.5528L89.9343 49.5997ZM95.5488 52.5075L94.5957 52.8102L94.5957 52.8102L95.5488 52.5075ZM96.2565 54.7359L97.2096 54.4332L97.2096 54.4332L96.2565 54.7359ZM93.3487 60.3504L93.046 59.3973L93.0459 59.3973L93.3487 60.3504ZM93.345 60.3516L93.6477 61.3047L93.6478 61.3046L93.345 60.3516ZM87.7305 57.4438L88.6836 57.1411L88.6836 57.1411L87.7305 57.4438ZM87.0227 55.2154L86.0696 55.5181L86.0696 55.5181L87.0227 55.2154ZM63.9187 70.1281C63.9187 76.9769 58.3666 82.5289 51.5179 82.5289V84.5289C59.4712 84.5289 65.9187 78.0815 65.9187 70.1281H63.9187ZM51.5179 82.5289C44.6691 82.5289 39.1171 76.9769 39.1171 70.1281H37.1171C37.1171 78.0815 43.5645 84.5289 51.5179 84.5289V82.5289ZM39.1171 70.1281C39.1171 63.2793 44.6691 57.7273 51.5179 57.7273V55.7273C43.5645 55.7273 37.1171 62.1748 37.1171 70.1281H39.1171ZM51.5179 57.7273C58.3666 57.7273 63.9187 63.2793 63.9187 70.1281H65.9187C65.9187 62.1748 59.4712 55.7273 51.5179 55.7273V57.7273ZM127.589 64.5514C127.589 70.7763 122.543 75.8226 116.318 75.8226V77.8226C123.648 77.8226 129.589 71.8809 129.589 64.5514H127.589ZM116.318 75.8226C110.093 75.8226 105.047 70.7763 105.047 64.5514H103.047C103.047 71.8809 108.989 77.8226 116.318 77.8226V75.8226ZM105.047 64.5514C105.047 58.3264 110.093 53.2801 116.318 53.2801V51.2801C108.989 51.2801 103.047 57.2219 103.047 64.5514H105.047ZM116.318 53.2801C122.543 53.2801 127.589 58.3264 127.589 64.5514H129.589C129.589 57.2219 123.648 51.2801 116.318 51.2801V53.2801ZM22.7728 121.622L26.1654 96.463L24.1834 96.1958L20.7907 121.354L22.7728 121.622ZM25.1744 96.3294C26.1434 96.5766 26.1432 96.577 26.1432 96.5774C26.1431 96.5775 26.1431 96.5778 26.143 96.5779C26.143 96.5781 26.143 96.5782 26.143 96.5781C26.143 96.5779 26.1433 96.577 26.1437 96.5755C26.1445 96.5723 26.146 96.5666 26.1483 96.5582C26.1528 96.5414 26.1603 96.5143 26.1709 96.4775C26.1922 96.4039 26.2258 96.2917 26.2731 96.1464C26.3679 95.8557 26.5171 95.4338 26.731 94.9246C27.1599 93.9036 27.8427 92.5465 28.8566 91.1947C30.8732 88.5059 34.1727 85.8599 39.452 85.8599V83.8599C33.3803 83.8599 29.5411 86.9487 27.2566 89.9947C26.1199 91.5102 25.3616 93.0204 24.8871 94.15C24.6493 94.7161 24.4812 95.1902 24.3715 95.5267C24.3167 95.6951 24.2763 95.8293 24.2491 95.9237C24.2355 95.9709 24.2252 96.0082 24.218 96.0348C24.2144 96.0481 24.2115 96.0588 24.2095 96.0667C24.2084 96.0707 24.2076 96.0739 24.2069 96.0765C24.2066 96.0778 24.2063 96.0789 24.206 96.0799C24.2059 96.0803 24.2058 96.0809 24.2057 96.0811C24.2056 96.0817 24.2054 96.0822 25.1744 96.3294ZM39.452 85.8599C44.6008 85.8599 48.2149 89.4493 50.6266 93.3375C51.82 95.2614 52.6793 97.1993 53.2485 98.6732C53.5324 99.4084 53.7429 100.025 53.8861 100.463C53.9578 100.682 54.0124 100.857 54.0526 100.984C54.0719 101.045 54.09 101.102 54.1045 101.146C54.1115 101.167 54.1209 101.194 54.1312 101.222C54.1362 101.235 54.1448 101.258 54.1562 101.284C54.1602 101.293 54.1924 101.37 54.2502 101.454L55.9026 100.328C55.9585 100.41 55.9885 100.482 55.9896 100.485C55.9981 100.504 56.0034 100.518 56.0045 100.521C56.0072 100.528 56.0069 100.528 56.0022 100.514C55.9934 100.488 55.98 100.446 55.9597 100.381C55.9204 100.257 55.8625 100.073 55.7871 99.8418C55.636 99.3794 55.4138 98.7285 55.1142 97.9527C54.5163 96.4044 53.6052 94.3453 52.3262 92.2833C49.7931 88.1993 45.6542 83.8599 39.452 83.8599V85.8599ZM54.2502 101.454C54.2002 101.381 54.1714 101.313 54.1969 101.367C54.2042 101.382 54.2165 101.409 54.2346 101.449C54.2703 101.527 54.3209 101.642 54.3853 101.789C54.5136 102.083 54.6913 102.494 54.9023 102.986C55.324 103.969 55.8757 105.264 56.4241 106.555C56.9723 107.845 57.5169 109.13 57.9245 110.093C58.1283 110.574 58.2978 110.975 58.4164 111.255C58.4756 111.395 58.5222 111.505 58.5539 111.58C58.5698 111.618 58.5819 111.647 58.5901 111.666C58.5942 111.676 58.5973 111.683 58.5994 111.688C58.6004 111.69 58.6012 111.692 58.6017 111.694C58.602 111.694 58.6022 111.695 58.6023 111.695C58.6024 111.695 58.6024 111.695 58.6024 111.695C58.6025 111.695 58.6025 111.695 59.5236 111.306C60.4447 110.917 60.4447 110.917 60.4446 110.917C60.4446 110.917 60.4446 110.916 60.4445 110.916C60.4444 110.916 60.4442 110.915 60.4439 110.915C60.4434 110.914 60.4426 110.912 60.4415 110.909C60.4395 110.904 60.4363 110.897 60.4322 110.887C60.424 110.868 60.4119 110.839 60.396 110.802C60.3643 110.726 60.3177 110.616 60.2584 110.476C60.1397 110.196 59.9701 109.795 59.7662 109.313C59.3585 108.35 58.8135 107.064 58.2648 105.773C57.7162 104.481 57.1634 103.184 56.7402 102.197C56.5288 101.705 56.3489 101.288 56.2178 100.988C56.1524 100.838 56.0979 100.715 56.0571 100.625C56.037 100.58 56.0183 100.54 56.0023 100.506C55.9945 100.49 55.9849 100.47 55.9748 100.45C55.9728 100.446 55.9442 100.389 55.9026 100.328L54.2502 101.454ZM59.4279 112.301L75.8699 113.881L76.0612 111.89L59.6192 110.311L59.4279 112.301ZM75.9655 112.886C75.7357 113.859 75.7352 113.859 75.7348 113.859C75.7347 113.859 75.7343 113.859 75.734 113.859C75.7335 113.859 75.7331 113.859 75.7327 113.858C75.732 113.858 75.7315 113.858 75.7313 113.858C75.7308 113.858 75.7312 113.858 75.7326 113.858C75.7354 113.859 75.7419 113.861 75.7518 113.863C75.7718 113.869 75.8055 113.878 75.8509 113.892C75.9421 113.921 76.0792 113.967 76.2467 114.035C76.5845 114.173 77.0312 114.394 77.4727 114.725C78.3355 115.372 79.1797 116.43 79.1797 118.21H81.1797C81.1797 115.661 79.9168 114.057 78.6725 113.125C78.0605 112.666 77.4536 112.367 77.0013 112.183C76.7738 112.09 76.5817 112.025 76.4423 111.982C76.3726 111.96 76.3157 111.944 76.2739 111.933C76.253 111.927 76.2358 111.923 76.2227 111.919C76.2161 111.918 76.2105 111.916 76.2059 111.915C76.2037 111.915 76.2016 111.914 76.1999 111.914C76.199 111.914 76.1982 111.913 76.1974 111.913C76.1971 111.913 76.1966 111.913 76.1964 111.913C76.1959 111.913 76.1954 111.913 75.9655 112.886ZM79.1797 118.21C79.1797 120.007 78.3638 121.049 77.5523 121.672C77.1347 121.993 76.7127 122.205 76.3941 122.336C76.2361 122.401 76.1071 122.444 76.0219 122.47C75.9794 122.483 75.9482 122.492 75.9301 122.497C75.921 122.499 75.9152 122.501 75.913 122.501C75.9119 122.502 75.9117 122.502 75.9124 122.502C75.9128 122.502 75.9134 122.501 75.9142 122.501C75.9146 122.501 75.9151 122.501 75.9156 122.501C75.9159 122.501 75.9163 122.501 75.9164 122.501C75.9169 122.501 75.9174 122.5 76.1433 123.475C76.3692 124.449 76.3697 124.449 76.3702 124.449C76.3704 124.448 76.3709 124.448 76.3713 124.448C76.3721 124.448 76.3729 124.448 76.3738 124.448C76.3756 124.447 76.3777 124.447 76.3799 124.446C76.3845 124.445 76.3901 124.444 76.3967 124.442C76.4097 124.439 76.4266 124.435 76.4471 124.429C76.4881 124.418 76.5436 124.402 76.6115 124.382C76.7471 124.34 76.9334 124.276 77.1538 124.186C77.5921 124.006 78.1791 123.713 78.7706 123.259C79.9774 122.332 81.1797 120.742 81.1797 118.21H79.1797ZM76.1433 122.475H53.7928V124.475H76.1433V122.475ZM53.7928 123.475C53.6556 122.484 53.6563 122.484 53.657 122.484C53.6573 122.484 53.658 122.484 53.6584 122.484C53.6593 122.484 53.6601 122.483 53.6609 122.483C53.6625 122.483 53.6639 122.483 53.6652 122.483C53.6676 122.483 53.6692 122.482 53.6702 122.482C53.672 122.482 53.6709 122.482 53.6669 122.482C53.6589 122.483 53.6397 122.485 53.6101 122.486C53.5509 122.488 53.4511 122.487 53.3184 122.475C53.0534 122.45 52.6578 122.376 52.1896 122.171C51.2728 121.771 49.9754 120.825 48.8402 118.526L47.0468 119.411C48.3683 122.088 49.9955 123.395 51.3891 124.004C52.0762 124.304 52.6823 124.424 53.1302 124.466C53.3539 124.487 53.5384 124.489 53.6743 124.485C53.7423 124.482 53.7984 124.479 53.8413 124.475C53.8628 124.473 53.881 124.471 53.8958 124.469C53.9032 124.469 53.9098 124.468 53.9155 124.467C53.9184 124.467 53.921 124.466 53.9234 124.466C53.9246 124.466 53.9258 124.466 53.9269 124.466C53.9274 124.466 53.9282 124.465 53.9285 124.465C53.9293 124.465 53.93 124.465 53.7928 123.475ZM48.8402 118.526C47.6127 116.039 45.7995 112.341 44.2928 109.263C43.5395 107.724 42.863 106.341 42.3748 105.343C42.1307 104.843 41.9336 104.44 41.7976 104.162C41.7297 104.023 41.6769 103.915 41.6412 103.842C41.6233 103.805 41.6097 103.777 41.6005 103.759C41.596 103.749 41.5925 103.742 41.5902 103.737C41.589 103.735 41.5882 103.733 41.5876 103.732C41.5873 103.731 41.5871 103.731 41.5869 103.731C41.5869 103.731 41.5868 103.73 41.5868 103.73C41.5867 103.73 41.5867 103.73 40.6882 104.169C39.7897 104.608 39.7897 104.608 39.7898 104.608C39.7898 104.608 39.7898 104.609 39.7899 104.609C39.7901 104.609 39.7903 104.609 39.7906 104.61C39.7912 104.611 39.792 104.613 39.7932 104.615C39.7955 104.62 39.799 104.627 39.8036 104.637C39.8127 104.655 39.8263 104.683 39.8442 104.72C39.88 104.793 39.9327 104.901 40.0008 105.04C40.1368 105.318 40.3339 105.722 40.578 106.221C41.0663 107.22 41.743 108.603 42.4965 110.142C44.0032 113.22 45.8177 116.921 47.0468 119.411L48.8402 118.526ZM62.2787 105.135L69.7828 93.5393L68.1037 92.4527L60.5996 104.049L62.2787 105.135ZM68.5358 93.9092L85.6886 101.563L86.5036 99.737L69.3508 92.0828L68.5358 93.9092ZM85.2499 100.117L79.0649 109.94L80.7574 111.006L86.9423 101.183L85.2499 100.117ZM73.2026 107.847L75.2919 113.321L77.1605 112.608L75.0712 107.134L73.2026 107.847ZM95.6988 116.056L97.6894 91.8338L95.6961 91.67L93.7055 115.893L95.6988 116.056ZM96.6928 91.7519C97.3406 90.9901 97.3408 90.9902 97.3409 90.9903C97.3409 90.9903 97.341 90.9904 97.341 90.9904C97.341 90.9904 97.3409 90.9904 97.3407 90.9902C97.3403 90.9899 97.3395 90.9892 97.3384 90.9882C97.336 90.9861 97.332 90.9827 97.3264 90.9779C97.3153 90.9683 97.2978 90.9532 97.2743 90.9326C97.2274 90.8915 97.1562 90.8286 97.063 90.7445C96.8766 90.5763 96.6022 90.3234 96.257 89.9903C95.5662 89.324 94.5929 88.3379 93.4735 87.0684C91.2324 84.5267 88.4188 80.8636 86.113 76.37L84.3336 77.2831C86.7356 81.9642 89.6568 85.7639 91.9734 88.3911C93.1329 89.7061 94.1442 90.7311 94.8684 91.4297C95.2306 91.7791 95.5212 92.0471 95.723 92.2292C95.8239 92.3203 95.9026 92.3899 95.957 92.4375C95.9842 92.4613 96.0053 92.4796 96.02 92.4923C96.0274 92.4986 96.0332 92.5036 96.0373 92.5072C96.0394 92.509 96.0411 92.5104 96.0423 92.5115C96.043 92.512 96.0435 92.5125 96.0439 92.5128C96.0441 92.513 96.0444 92.5132 96.0445 92.5133C96.0447 92.5135 96.0449 92.5136 96.6928 91.7519ZM86.113 76.37C83.821 71.9037 81.8987 67.3907 80.675 63.6275C80.0627 61.7445 79.6324 60.0705 79.4144 58.6964C79.1907 57.2862 79.2132 56.3219 79.3865 55.7799L77.4815 55.1708C77.1592 56.1789 77.2048 57.533 77.4391 59.0098C77.6792 60.5227 78.1417 62.3043 78.773 64.2459C80.0366 68.132 82.0045 72.7444 84.3336 77.2831L86.113 76.37ZM79.3865 55.7799C79.7503 54.6421 80.9433 53.6666 82.3237 53.4002C83.6344 53.1473 84.9617 53.5573 85.7447 55.013L87.506 54.0655C86.2432 51.7178 83.9704 51.0456 81.9448 51.4365C79.9888 51.8139 78.109 53.2082 77.4815 55.1708L79.3865 55.7799ZM85.7447 55.013C86.7012 56.7912 88.8196 61.7322 92.0246 66.8179C95.2484 71.9336 99.7076 77.4455 105.582 80.5801L106.524 78.8156C101.103 75.9232 96.8713 70.7575 93.7166 65.7516C90.543 60.7156 88.5954 56.0907 87.506 54.0655L85.7447 55.013ZM105.582 80.5801C111.69 83.8403 116.379 84.7834 120.172 85.9159C123.918 87.0343 126.88 88.3453 129.956 92.306L131.536 91.0792C128.115 86.6748 124.724 85.1876 120.744 83.9995C116.812 82.8254 112.403 81.9536 106.524 78.8157L105.582 80.5801ZM129.956 92.3058C130.868 93.4811 131.471 95.4718 131.8 97.9701C132.125 100.431 132.166 103.231 132.073 105.89C131.979 108.543 131.752 111.029 131.547 112.853C131.445 113.765 131.349 114.509 131.278 115.024C131.243 115.282 131.214 115.482 131.194 115.618C131.184 115.685 131.177 115.736 131.171 115.771C131.169 115.788 131.167 115.8 131.166 115.809C131.165 115.813 131.164 115.816 131.164 115.818C131.164 115.819 131.164 115.819 131.164 115.82C131.164 115.82 131.164 115.82 131.164 115.82C131.164 115.82 131.164 115.82 132.152 115.974C133.14 116.129 133.14 116.129 133.14 116.128C133.14 116.128 133.14 116.128 133.14 116.127C133.14 116.127 133.14 116.126 133.14 116.124C133.141 116.122 133.141 116.118 133.142 116.113C133.144 116.103 133.146 116.089 133.149 116.071C133.154 116.034 133.162 115.979 133.173 115.909C133.194 115.767 133.223 115.56 133.26 115.295C133.332 114.766 133.43 114.005 133.535 113.076C133.743 111.219 133.975 108.68 134.071 105.96C134.167 103.246 134.128 100.323 133.783 97.7086C133.443 95.1313 132.788 92.6926 131.536 91.0795L129.956 92.3058ZM72.9948 56.0291L72.9986 56.0279L72.393 54.1218L72.3893 54.123L72.9948 56.0291ZM72.9985 56.0279C74.8255 55.4477 76.777 56.4583 77.3572 58.2853L79.2634 57.6799C78.3488 54.8002 75.2728 53.2071 72.3931 54.1217L72.9985 56.0279ZM77.3572 58.2853L78.065 60.5138L79.9711 59.9084L79.2634 57.6799L77.3572 58.2853ZM78.065 60.5138C78.6452 62.3407 77.6345 64.2922 75.8076 64.8724L76.413 66.7786C79.2927 65.864 80.8857 62.7881 79.9711 59.9084L78.065 60.5138ZM75.8076 64.8724L75.8038 64.8736L76.4092 66.7798L76.413 66.7786L75.8076 64.8724ZM75.8038 64.8736C73.9768 65.4539 72.0254 64.4432 71.4451 62.6162L69.5389 63.2216C70.4535 66.1014 73.5295 67.6944 76.4092 66.7798L75.8038 64.8736ZM71.4451 62.6162L70.7373 60.3878L68.8312 60.9932L69.5389 63.2216L71.4451 62.6162ZM70.7373 60.3878C70.1571 58.5608 71.1678 56.6094 72.9947 56.0291L72.3893 54.1229C69.5096 55.0376 67.9166 58.1135 68.8312 60.9932L70.7373 60.3878ZM90.2329 50.5541L90.2367 50.5529L89.6319 48.6465L89.6281 48.6477L90.2329 50.5541ZM90.237 50.5528C92.064 49.9725 94.0154 50.9832 94.5957 52.8102L96.5018 52.2048C95.5872 49.325 92.5113 47.732 89.6316 48.6466L90.237 50.5528ZM94.5957 52.8102L95.3034 55.0386L97.2096 54.4332L96.5018 52.2048L94.5957 52.8102ZM95.3034 55.0386C95.8837 56.8656 94.873 58.817 93.046 59.3973L93.6514 61.3035C96.5312 60.3889 98.1242 57.3129 97.2096 54.4332L95.3034 55.0386ZM93.0459 59.3973L93.0422 59.3985L93.6478 61.3046L93.6515 61.3034L93.0459 59.3973ZM93.0423 59.3985C91.2153 59.9788 89.2638 58.9681 88.6836 57.1411L86.7774 57.7465C87.692 60.6262 90.7679 62.2193 93.6477 61.3047L93.0423 59.3985ZM88.6836 57.1411L87.9758 54.9127L86.0696 55.5181L86.7774 57.7465L88.6836 57.1411ZM87.9758 54.9127C87.3956 53.0857 88.4062 51.1342 90.2332 50.554L89.6278 48.6478C86.7481 49.5624 85.155 52.6383 86.0696 55.5181L87.9758 54.9127ZM120.021 104.88L119.144 115.895L121.138 116.054L122.015 105.039L120.021 104.88Z" fill="white"/>
</svg>
