<?xml version="1.0" encoding="UTF-8"?>
<svg id="Ebene_1" xmlns="http://www.w3.org/2000/svg" version="1.1" viewBox="0 0 995.4 351.4">
  <!-- Generator: Adobe Illustrator 29.1.0, SVG Export Plug-In . SVG Version: 2.1.0 Build 142)  -->
  <defs>
    <style>
      .st0 {
        fill: #002df5;
      }

      .st1 {
        fill: #fff;
      }
    </style>
  </defs>
  <g>
    <polygon class="st1" points="128.3 351.4 165.3 213.4 251.3 213.4 244.5 238.5 201.5 238.5 194.8 263.6 237.8 263.6 231.1 288.7 188.1 288.7 171.3 351.4 128.3 351.4"/>
    <polygon class="st1" points="272.7 213.4 235.8 351.4 278.8 351.4 315.7 213.4 272.7 213.4"/>
    <polygon class="st1" points="343.3 351.4 373.6 238.5 330.6 238.5 337.3 213.4 466.3 213.4 459.6 238.5 416.6 238.5 386.3 351.4 343.3 351.4"/>
    <polygon class="st1" points="530.8 213.4 487.8 213.4 450.8 351.4 493.8 351.4 510.6 288.7 536.8 351.4 579.8 351.4 616.8 213.4 573.8 213.4 553.6 288.7 530.8 213.4"/>
    <polygon class="st1" points="601.3 351.4 638.3 213.4 724.3 213.4 717.6 238.5 674.6 238.5 666.2 269.9 709.2 269.9 702.5 295 659.5 295 651 326.3 694 326.3 687.3 351.4 601.3 351.4"/>
    <polygon class="st1" points="708.7 351.4 718.8 313.8 740.3 313.8 737 326.3 780 326.3 788.4 295 723.9 295 745.7 213.4 853.2 213.4 843.1 251 821.6 251 825 238.5 782 238.5 773.6 269.9 838.1 269.9 816.2 351.4 708.7 351.4"/>
    <polygon class="st1" points="837.7 351.4 847.8 313.8 869.3 313.8 865.9 326.3 908.9 326.3 917.3 295 852.9 295 874.7 213.4 982.2 213.4 972.1 251 950.6 251 954 238.5 911 238.5 902.6 269.9 967.1 269.9 945.2 351.4 837.7 351.4"/>
  </g>
  <polygon class="st0" points="200.9 0 187.5 50.2 144.5 50.2 147.9 37.7 83.4 37.7 73.3 75.3 288.3 75.3 258.2 188.3 172 188.3 182.1 150.6 225.1 150.6 235.2 113 170.7 113 130.3 263.6 87.3 263.6 107.5 188.3 0 188.3 13.5 138.1 56.5 138.1 53.1 150.6 117.6 150.6 127.7 113 20.2 113 50.4 0 200.9 0"/>
  <g>
    <path class="st0" d="M418.4,170.9c-.4.4-.7.7-1.1.9-.4.2-.8.3-1.2.3s-.8-.1-1.2-.4c-.4-.2-.9-.5-1.4-.8-.5-.3-1.1-.6-1.8-.8s-1.5-.4-2.5-.4c-1.7,0-3.1.3-4.1,1-1,.7-1.7,1.6-2,2.8-.2.8-.1,1.4.2,1.9.4.5.9.9,1.6,1.3.7.4,1.6.7,2.5,1,1,.3,1.9.6,2.9,1,1,.4,1.9.8,2.9,1.3.9.5,1.7,1.1,2.3,1.9.6.8,1,1.7,1.2,2.8.2,1.1,0,2.5-.3,4-.5,1.7-1.2,3.4-2.2,4.9-1,1.5-2.3,2.8-3.8,4-1.5,1.1-3.2,2-5.1,2.7-1.9.6-4,1-6.2,1s-2.4-.1-3.6-.4c-1.2-.2-2.3-.6-3.4-1-1.1-.4-2-1-2.9-1.6-.9-.6-1.6-1.3-2.2-2l3.8-4.1c.3-.3.6-.6,1-.8.4-.2.8-.3,1.2-.3s1,.2,1.5.5,1,.7,1.6,1.1c.6.4,1.3.8,2.1,1.1.8.3,1.8.5,3,.5s3-.3,4.1-1c1.1-.7,1.9-1.8,2.3-3.3.2-.9.2-1.6-.2-2.1-.4-.6-.9-1-1.6-1.4-.7-.4-1.6-.7-2.5-1-1-.3-1.9-.6-2.9-.9-1-.3-2-.8-2.9-1.2-.9-.5-1.7-1.1-2.3-1.9-.6-.8-1-1.8-1.2-3-.2-1.2,0-2.7.4-4.4.4-1.4,1-2.8,2-4.1,1-1.3,2.1-2.5,3.6-3.6,1.4-1.1,3.1-1.9,4.9-2.5,1.8-.6,3.8-.9,6-.9s2.3,0,3.4.3c1.1.2,2.1.4,3,.8.9.4,1.8.8,2.5,1.3.8.5,1.4,1,1.9,1.7l-3.3,4.1Z"/>
    <path class="st0" d="M465.9,163.2l-1.8,6.7h-16l-2.4,8.8h12.3l-1.7,6.5h-12.3l-2.4,9h16l-1.8,6.7h-25.1l10.1-37.7h25.1Z"/>
    <path class="st0" d="M473.8,200.9l10.1-37.7h14.4c2.7,0,4.9.2,6.7.7,1.8.5,3.1,1.2,4.1,2,1,.9,1.5,1.9,1.8,3.2.2,1.3.1,2.7-.3,4.2-.2.8-.6,1.7-1,2.4-.5.8-1,1.5-1.8,2.2-.7.7-1.6,1.3-2.6,1.9-1,.6-2.1,1-3.4,1.5,2.4.6,4.1,1.6,4.9,2.9.9,1.4,1,3.1.5,5.2-.4,1.6-1.2,3.1-2.2,4.5-1,1.4-2.3,2.6-3.8,3.6-1.5,1-3.3,1.8-5.2,2.4-2,.6-4.1.9-6.5.9h-15.6ZM487.2,184.9l-2.5,9.4h6.4c1.2,0,2.2-.1,3.1-.4.8-.3,1.5-.7,2.1-1.1s1-1,1.3-1.6.6-1.2.7-1.8c.2-.7.3-1.3.2-1.9s-.2-1-.6-1.4c-.4-.4-.9-.7-1.6-.9-.7-.2-1.6-.3-2.8-.3h-6.3ZM488.8,179.1h4.7c1,0,1.9,0,2.8-.2.8-.1,1.6-.4,2.2-.7s1.2-.8,1.7-1.4c.5-.6.8-1.4,1.1-2.3.2-.9.3-1.6.3-2.2,0-.6-.3-1.1-.7-1.4-.4-.4-.9-.6-1.6-.8-.7-.2-1.6-.2-2.6-.2h-5.3l-2.5,9.3Z"/>
    <path class="st0" d="M556.7,200.9h-7c-.8,0-1.4-.2-1.8-.5-.4-.4-.6-.8-.7-1.4l-.5-6.6h-14.8l-4.1,6.6c-.3.5-.8.9-1.4,1.3-.6.4-1.3.6-2.1.6h-7.1l25.2-37.7h9.3l5,37.7ZM535.5,186.5h10.7l-.8-10.3c0-.7-.1-1.4-.2-2.3s-.1-1.8-.2-2.9c-.6,1.1-1.1,2-1.7,2.9-.5.9-1,1.7-1.5,2.3l-6.3,10.3Z"/>
    <path class="st0" d="M602.7,170.9c-.4.4-.7.7-1.1.9-.4.2-.8.3-1.2.3s-.8-.1-1.2-.4c-.4-.2-.9-.5-1.4-.8-.5-.3-1.1-.6-1.8-.8-.7-.2-1.5-.4-2.5-.4-1.7,0-3.1.3-4.1,1-1,.7-1.7,1.6-2,2.8-.2.8-.1,1.4.2,1.9s.9.9,1.6,1.3c.7.4,1.6.7,2.5,1,1,.3,1.9.6,2.9,1,1,.4,1.9.8,2.9,1.3.9.5,1.7,1.1,2.3,1.9s1,1.7,1.2,2.8c.2,1.1,0,2.5-.3,4-.5,1.7-1.2,3.4-2.2,4.9-1,1.5-2.3,2.8-3.8,4-1.5,1.1-3.2,2-5.1,2.7-1.9.6-4,1-6.2,1s-2.4-.1-3.6-.4c-1.2-.2-2.3-.6-3.4-1-1.1-.4-2-1-2.9-1.6-.9-.6-1.6-1.3-2.2-2l3.8-4.1c.3-.3.6-.6,1-.8.4-.2.8-.3,1.2-.3s1,.2,1.5.5,1,.7,1.6,1.1c.6.4,1.3.8,2.1,1.1.8.3,1.8.5,3,.5s3-.3,4.1-1c1.1-.7,1.9-1.8,2.3-3.3.2-.9.2-1.6-.2-2.1-.4-.6-.9-1-1.6-1.4s-1.6-.7-2.5-1c-1-.3-1.9-.6-2.9-.9-1-.3-2-.8-2.9-1.2-.9-.5-1.7-1.1-2.3-1.9-.6-.8-1-1.8-1.2-3-.2-1.2,0-2.7.4-4.4.4-1.4,1-2.8,2-4.1,1-1.3,2.1-2.5,3.6-3.6,1.4-1.1,3.1-1.9,4.9-2.5,1.8-.6,3.8-.9,6-.9s2.3,0,3.4.3c1.1.2,2.1.4,3,.8.9.4,1.8.8,2.5,1.3.8.5,1.4,1,1.9,1.7l-3.3,4.1Z"/>
    <path class="st0" d="M653.2,163.2l-1.9,6.9h-11l-8.2,30.8h-9.1l8.2-30.8h-11l1.9-6.9h31Z"/>
    <path class="st0" d="M668.4,200.9h-9.1l10.1-37.7h9.1l-10.1,37.7Z"/>
    <path class="st0" d="M723.8,200.9h-7c-.8,0-1.4-.2-1.8-.5-.4-.4-.6-.8-.7-1.4l-.5-6.6h-14.8l-4.1,6.6c-.3.5-.8.9-1.4,1.3-.6.4-1.3.6-2.1.6h-7.1l25.2-37.7h9.3l5,37.7ZM702.6,186.5h10.7l-.8-10.3c0-.7-.1-1.4-.2-2.3s-.1-1.8-.2-2.9c-.6,1.1-1.1,2-1.7,2.9-.5.9-1,1.7-1.5,2.3l-6.3,10.3Z"/>
    <path class="st0" d="M755.2,163.3c.3,0,.5,0,.7.2.2,0,.4.2.5.4.1.2.3.4.5.7l12.5,22.6c.1-.7.3-1.4.4-2.1.1-.7.3-1.3.5-1.9l5.3-19.9h8l-10.1,37.7h-4.7c-.7,0-1.3-.1-1.7-.3s-.8-.6-1.1-1.1l-12.4-22.5c-.1.7-.2,1.3-.4,1.9-.1.6-.3,1.2-.4,1.8l-5.4,20.2h-8l10.1-37.7h4.8c.4,0,.7,0,1,0Z"/>
    <path class="st0" d="M829.4,188.3l-3.4,12.6h-9.1l10.1-37.7h13.8c2.8,0,5,.3,6.8.9,1.8.6,3.2,1.5,4.2,2.6,1,1.1,1.6,2.4,1.8,3.9.2,1.5,0,3.1-.4,4.9-.5,1.9-1.3,3.6-2.3,5.2-1,1.6-2.4,2.9-3.9,4-1.6,1.1-3.5,2-5.6,2.6-2.1.6-4.6.9-7.3.9h-4.7ZM831.2,181.7h4.7c2.4,0,4.2-.5,5.5-1.6,1.3-1.1,2.3-2.6,2.8-4.6.2-.9.3-1.6.2-2.4,0-.7-.3-1.3-.7-1.8-.4-.5-1-.9-1.7-1.2-.8-.3-1.7-.4-2.8-.4h-4.7l-3.2,12Z"/>
    <path class="st0" d="M898.2,163.2l-1.8,6.7h-16l-2.6,9.5h13.3l-1.8,6.8h-13.3l-3.9,14.7h-9.1l10.1-37.7h25.1Z"/>
    <path class="st0" d="M938.2,200.9h-7c-.8,0-1.4-.2-1.8-.5-.4-.4-.6-.8-.7-1.4l-.5-6.6h-14.8l-4.1,6.6c-.3.5-.8.9-1.4,1.3-.6.4-1.3.6-2.1.6h-7.1l25.2-37.7h9.3l5,37.7ZM917,186.5h10.7l-.8-10.3c0-.7-.1-1.4-.2-2.3s-.1-1.8-.2-2.9c-.6,1.1-1.1,2-1.7,2.9-.5.9-1,1.7-1.5,2.3l-6.3,10.3Z"/>
    <path class="st0" d="M970.4,194c1.2,0,2.3-.2,3.4-.6,1.1-.4,2-.9,2.9-1.7.9-.7,1.6-1.6,2.2-2.7.6-1,1.1-2.2,1.5-3.6l6-22.3h9.1l-6,22.3c-.6,2.3-1.6,4.4-2.9,6.4-1.3,1.9-2.9,3.6-4.7,5s-3.9,2.5-6.2,3.3c-2.3.8-4.7,1.2-7.3,1.2s-4.8-.4-6.7-1.2c-1.9-.8-3.3-1.9-4.4-3.3-1.1-1.4-1.7-3.1-2-5-.2-1.9,0-4.1.6-6.4l6-22.3h9.1l-6,22.3c-.4,1.3-.5,2.5-.4,3.6,0,1,.3,1.9.8,2.7s1.1,1.3,2,1.7c.9.4,1.9.6,3.1.6Z"/>
  </g>
</svg>