<svg width="160" height="160" viewBox="0 0 160 160" fill="none" xmlns="http://www.w3.org/2000/svg">
<path d="M104.781 112.151L105.72 111.807C105.543 111.324 105.029 111.055 104.531 111.183L104.781 112.151ZM90.0338 54.3418L90.9993 54.0812C90.914 53.7652 90.6795 53.5109 90.3714 53.4005C90.0633 53.29 89.7207 53.3373 89.454 53.527L90.0338 54.3418ZM70.2585 54.8118L70.5848 53.8665C70.1652 53.7217 69.7003 53.8707 69.4433 54.2326L70.2585 54.8118ZM71.08 81.7279L70.1024 81.9388C70.1753 82.2767 70.4175 82.553 70.743 82.6694C71.0685 82.7859 71.431 82.7261 71.7017 82.5111L71.08 81.7279ZM100.101 82.3125L99.4197 83.0442C99.6154 83.2265 99.8759 83.3228 100.143 83.3116C100.41 83.3004 100.662 83.1827 100.842 82.9847L100.101 82.3125ZM57.6012 101.263C57.1459 100.951 56.5234 101.067 56.2109 101.522C55.8984 101.977 56.0142 102.6 56.4695 102.912L57.6012 101.263ZM69.907 107.184C70.4592 107.184 70.907 106.736 70.907 106.184C70.907 105.631 70.4592 105.184 69.907 105.184V107.184ZM91.2661 125.493V126.493C91.4764 126.493 91.6813 126.427 91.8518 126.303L91.2661 125.493ZM71.4315 125.493L70.7077 124.803C70.4316 125.092 70.3547 125.519 70.5122 125.887C70.6698 126.254 71.0314 126.493 71.4315 126.493V125.493ZM76.874 115.457L77.8644 115.319L77.8643 115.319L76.874 115.457ZM75.1322 86.5819L76.1265 86.6889L76.1265 86.6886L75.1322 86.5819ZM100.686 114.087C100.846 114.087 101.039 114.055 101.172 114.032C101.333 114.003 101.527 113.964 101.735 113.918C102.153 113.828 102.66 113.709 103.145 113.591C103.632 113.473 104.103 113.355 104.453 113.267C104.627 113.223 104.772 113.186 104.873 113.16C104.923 113.147 104.963 113.137 104.99 113.13C105.003 113.127 105.013 113.124 105.021 113.122C105.024 113.121 105.027 113.121 105.029 113.12C105.029 113.12 105.03 113.12 105.031 113.12C105.031 113.12 105.031 113.12 105.031 113.12C105.031 113.12 105.031 113.12 105.031 113.12C105.031 113.12 105.031 113.12 104.781 112.151C104.531 111.183 104.531 111.183 104.531 111.183C104.531 111.183 104.531 111.183 104.531 111.183C104.531 111.183 104.531 111.183 104.531 111.183C104.531 111.183 104.53 111.183 104.529 111.184C104.527 111.184 104.525 111.185 104.522 111.186C104.515 111.187 104.505 111.19 104.492 111.193C104.465 111.2 104.427 111.21 104.377 111.223C104.278 111.248 104.135 111.284 103.963 111.328C103.617 111.415 103.153 111.531 102.674 111.647C102.194 111.764 101.707 111.878 101.313 111.964C101.115 112.006 100.948 112.04 100.822 112.062C100.666 112.09 100.643 112.087 100.686 112.087V114.087ZM104.781 112.151C103.843 112.496 103.843 112.496 103.843 112.496C103.843 112.497 103.843 112.497 103.843 112.497C103.844 112.498 103.844 112.499 103.844 112.5C103.845 112.502 103.846 112.504 103.847 112.507C103.849 112.512 103.851 112.519 103.855 112.528C103.862 112.546 103.871 112.57 103.883 112.601C103.907 112.662 103.943 112.749 103.991 112.86C104.086 113.082 104.23 113.399 104.429 113.796C104.828 114.591 105.451 115.706 106.358 117.02C108.171 119.649 111.118 123.072 115.672 126.308L116.83 124.678C112.49 121.594 109.702 118.347 108.004 115.885C107.155 114.653 106.578 113.618 106.216 112.898C106.036 112.538 105.909 112.258 105.828 112.071C105.788 111.977 105.76 111.907 105.742 111.863C105.733 111.84 105.727 111.824 105.723 111.815C105.722 111.81 105.72 111.807 105.72 111.806C105.72 111.805 105.72 111.805 105.72 111.805C105.72 111.805 105.72 111.805 105.72 111.806C105.72 111.806 105.72 111.806 105.72 111.806C105.72 111.807 105.72 111.807 104.781 112.151ZM72.3636 114.845C72.5237 113.858 72.5237 113.858 72.5236 113.858C72.5235 113.858 72.5234 113.858 72.5231 113.858C72.5226 113.858 72.5217 113.857 72.5205 113.857C72.5182 113.857 72.5145 113.856 72.5096 113.855C72.4997 113.854 72.4847 113.851 72.4647 113.848C72.4248 113.841 72.3649 113.831 72.2863 113.818C72.129 113.792 71.8968 113.752 71.5991 113.699C71.0035 113.593 70.1463 113.436 69.1028 113.231C67.0147 112.82 64.1865 112.217 61.22 111.448C58.2492 110.678 55.1627 109.748 52.549 108.685C49.8903 107.604 47.8847 106.449 46.9131 105.304L45.3878 106.597C46.6991 108.143 49.1115 109.446 51.7957 110.538C54.5251 111.647 57.7065 112.604 60.7182 113.384C63.7344 114.166 66.6034 114.778 68.7168 115.193C69.7741 115.401 70.6438 115.561 71.2499 115.668C71.553 115.722 71.7904 115.763 71.9524 115.79C72.0335 115.804 72.0957 115.814 72.1379 115.821C72.159 115.825 72.1752 115.827 72.1861 115.829C72.1916 115.83 72.1958 115.831 72.1987 115.831C72.2002 115.831 72.2013 115.832 72.2021 115.832C72.2025 115.832 72.2028 115.832 72.203 115.832C72.2033 115.832 72.2035 115.832 72.3636 114.845ZM46.9131 105.304C44.796 102.807 43.7579 99.5581 43.2606 96.5433C42.7648 93.5375 42.8217 90.8714 42.8217 89.5678H40.8217C40.8217 90.8392 40.7602 93.6729 41.2873 96.8688C41.813 100.056 42.9392 103.71 45.3878 106.597L46.9131 105.304ZM42.8217 89.5678C42.8217 88.3714 43.189 84.7558 43.9162 80.8423C44.6493 76.8972 45.7075 72.8875 47.0022 70.7823L45.2987 69.7346C43.7853 72.1951 42.6791 76.5525 41.9499 80.4769C41.2148 84.4328 40.8217 88.189 40.8217 89.5678H42.8217ZM47.0022 70.7823C48.4624 68.4082 49.9242 64.8759 51.0398 61.8085C52.1482 58.7609 52.9709 56.0158 53.1047 55.2083L51.1317 54.8813C51.0325 55.4798 50.2754 58.0587 49.1602 61.125C48.0522 64.1716 46.6466 67.543 45.2987 69.7346L47.0022 70.7823ZM53.1047 55.2083C53.2238 54.4902 53.4688 52.1589 54.9624 49.3387C56.4498 46.5303 59.1981 43.2033 64.3861 40.6112L63.4922 38.8221C57.9138 41.6092 54.8682 45.2433 53.1949 48.4026C51.5279 51.5502 51.2457 54.1934 51.1317 54.8813L53.1047 55.2083ZM64.3861 40.6112C69.6514 37.9805 75.6811 36.4133 81.0051 36.2849C86.3731 36.1555 90.7807 37.4862 93.1224 40.3497L94.6706 39.0836C91.7476 35.5093 86.5597 34.1504 80.9569 34.2855C75.31 34.4217 68.9934 36.0735 63.4922 38.8221L64.3861 40.6112ZM93.1224 40.3497C95.5332 43.2976 96.1588 47.3283 95.7842 50.5881C95.5972 52.2153 95.1695 53.5657 94.6619 54.4329C94.1032 55.3874 93.7177 55.3733 93.6514 55.358L93.2015 57.3067C94.6578 57.6429 95.7505 56.5323 96.388 55.4432C97.0766 54.2667 97.5632 52.6263 97.7711 50.8164C98.1865 47.2021 97.5246 42.5734 94.6706 39.0836L93.1224 40.3497ZM93.6514 55.358C92.2493 55.0343 91.5629 54.5979 91.2474 54.3214C91.0894 54.183 91.0168 54.0781 90.9899 54.034C90.9761 54.0113 90.9728 54.0021 90.9759 54.0094C90.9774 54.0129 90.9805 54.0205 90.9845 54.0324C90.9866 54.0383 90.9888 54.0453 90.9913 54.0534C90.9926 54.0575 90.9939 54.0618 90.9952 54.0664C90.9958 54.0687 90.9965 54.0711 90.9972 54.0736C90.9975 54.0748 90.9979 54.0761 90.9982 54.0773C90.9984 54.078 90.9987 54.0789 90.9988 54.0792C90.999 54.0802 90.9993 54.0812 90.0338 54.3418C89.0684 54.6024 89.0687 54.6034 89.0689 54.6043C89.069 54.6047 89.0693 54.6057 89.0695 54.6063C89.0698 54.6077 89.0702 54.609 89.0706 54.6104C89.0714 54.6132 89.0722 54.6161 89.073 54.619C89.0747 54.6249 89.0765 54.631 89.0785 54.6376C89.0825 54.6506 89.0871 54.6649 89.0924 54.6805C89.1031 54.7115 89.1166 54.7474 89.1335 54.7876C89.1675 54.868 89.2152 54.9649 89.2815 55.0739C89.415 55.2931 89.6196 55.5541 89.9291 55.8255C90.5487 56.3685 91.5586 56.9274 93.2015 57.3067L93.6514 55.358ZM90.0338 54.3418C89.454 53.527 89.4545 53.5267 89.455 53.5264C89.4551 53.5263 89.4555 53.5259 89.4558 53.5258C89.4563 53.5254 89.4567 53.5252 89.4569 53.525C89.4575 53.5246 89.4576 53.5245 89.4574 53.5246C89.4569 53.525 89.4547 53.5265 89.4509 53.5291C89.4432 53.5343 89.429 53.5439 89.4083 53.5574C89.3668 53.5843 89.2991 53.627 89.2055 53.682C89.0183 53.792 88.7276 53.951 88.3353 54.1319C87.5507 54.4937 86.3594 54.9431 84.7752 55.2627C81.6151 55.9004 76.8522 56.03 70.5848 53.8665L69.9322 55.757C76.5363 58.0368 81.6611 57.9314 85.1708 57.2232C86.9215 56.87 88.2606 56.3687 89.1727 55.9481C89.6287 55.7379 89.9779 55.5478 90.2186 55.4064C90.3389 55.3357 90.4321 55.2772 90.4981 55.2344C90.531 55.213 90.5571 55.1955 90.5764 55.1823C90.586 55.1758 90.594 55.1703 90.6002 55.166C90.6033 55.1638 90.606 55.162 90.6082 55.1604C90.6093 55.1596 90.6104 55.1589 90.6113 55.1582C90.6117 55.1579 90.6123 55.1575 90.6125 55.1573C90.6131 55.1569 90.6137 55.1565 90.0338 54.3418ZM70.2585 54.8118C69.4433 54.2326 69.4431 54.2329 69.4429 54.2332C69.4428 54.2333 69.4425 54.2336 69.4424 54.2339C69.442 54.2343 69.4416 54.2349 69.4412 54.2355C69.4403 54.2368 69.4392 54.2383 69.438 54.2401C69.4354 54.2437 69.4321 54.2484 69.4281 54.2542C69.4201 54.2657 69.4092 54.2815 69.3956 54.3016C69.3684 54.3416 69.3305 54.3985 69.2836 54.4713C69.1898 54.6168 69.0597 54.8264 68.9075 55.0928C68.6035 55.6248 68.2085 56.388 67.837 57.3248C67.0976 59.1888 66.4288 61.7963 66.8106 64.6561L68.793 64.3913C68.4719 61.9863 69.0314 59.7379 69.6961 58.0622C70.0266 57.229 70.3776 56.5513 70.644 56.085C70.777 55.8522 70.8883 55.6732 70.9646 55.555C71.0026 55.4959 71.0319 55.4521 71.0507 55.4244C71.0601 55.4106 71.0668 55.4008 71.0707 55.3952C71.0727 55.3924 71.0739 55.3906 71.0744 55.3899C71.0746 55.3896 71.0747 55.3895 71.0746 55.3896C71.0745 55.3897 71.0744 55.3899 71.0743 55.3901C71.0742 55.3902 71.074 55.3904 71.074 55.3905C71.0738 55.3907 71.0737 55.391 70.2585 54.8118ZM66.8106 64.6561C67.1671 67.3257 67.9932 71.6577 68.7241 75.297C69.0907 77.1221 69.4352 78.7821 69.688 79.9857C69.8144 80.5876 69.918 81.0755 69.9899 81.4131C70.0259 81.5819 70.054 81.7131 70.0731 81.8023C70.0827 81.8468 70.09 81.8809 70.0949 81.9038C70.0974 81.9153 70.0993 81.924 70.1005 81.9298C70.1011 81.9327 70.1016 81.9349 70.1019 81.9364C70.1021 81.9372 70.1022 81.9378 70.1023 81.9381C70.1024 81.9383 70.1024 81.9385 70.1024 81.9386C70.1024 81.9387 70.1024 81.9388 71.08 81.7279C72.0575 81.5171 72.0575 81.5171 72.0575 81.517C72.0575 81.5169 72.0574 81.5168 72.0574 81.5166C72.0573 81.5163 72.0572 81.5157 72.0571 81.515C72.0567 81.5136 72.0563 81.5115 72.0557 81.5087C72.0545 81.503 72.0526 81.4945 72.0502 81.4832C72.0453 81.4607 72.0381 81.427 72.0286 81.3828C72.0097 81.2945 71.9818 81.1641 71.946 80.9961C71.8744 80.6602 71.7712 80.1743 71.6453 79.5745C71.3933 78.375 71.0501 76.721 70.685 74.9032C69.9526 71.2565 69.1396 66.9864 68.793 64.3913L66.8106 64.6561ZM71.08 81.7279C71.7017 82.5111 71.7014 82.5114 71.7012 82.5116C71.7012 82.5116 71.701 82.5117 71.701 82.5117C71.701 82.5117 71.7012 82.5116 71.7016 82.5112C71.7025 82.5105 71.7043 82.5091 71.707 82.507C71.7124 82.5028 71.7215 82.4957 71.7341 82.486C71.7594 82.4665 71.799 82.4364 71.8524 82.3967C71.9591 82.3173 72.1208 82.1997 72.3335 82.0529C72.759 81.7591 73.3869 81.3493 74.1843 80.8945C75.7823 79.9832 78.0439 78.9013 80.7084 78.2053C86.0066 76.8214 92.8823 76.9556 99.4197 83.0442L100.783 81.5807C93.6271 74.9162 85.9921 74.7581 80.203 76.2702C77.3238 77.0223 74.8975 78.1854 73.1936 79.1572C72.34 79.6439 71.6635 80.0851 71.1972 80.407C70.964 80.5681 70.783 80.6994 70.6585 80.7921C70.5963 80.8384 70.5481 80.875 70.5146 80.9008C70.4978 80.9137 70.4847 80.9239 70.4753 80.9313C70.4705 80.935 70.4668 80.938 70.4639 80.9402C70.4625 80.9413 70.4613 80.9423 70.4604 80.943C70.4599 80.9434 70.4593 80.9438 70.4591 80.944C70.4586 80.9444 70.4582 80.9447 71.08 81.7279ZM100.101 82.3125C100.842 82.9847 100.841 82.985 100.841 82.9852C100.841 82.9853 100.841 82.9855 100.841 82.9856C100.841 82.9858 100.84 82.986 100.84 82.986C100.84 82.986 100.841 82.9857 100.841 82.985C100.843 82.9835 100.845 82.9806 100.849 82.9763C100.857 82.9676 100.871 82.9531 100.89 82.9332C100.928 82.8934 100.988 82.8319 101.07 82.7517C101.233 82.591 101.482 82.3553 101.815 82.0669C102.481 81.4898 103.481 80.7039 104.797 79.8877C107.431 78.2553 111.32 76.5083 116.34 76.0571L116.161 74.0651C110.767 74.5499 106.581 76.4286 103.744 78.1879C102.325 79.0675 101.24 79.9189 100.505 80.5552C100.138 80.8735 99.8575 81.1385 99.6662 81.3269C99.5705 81.4211 99.4971 81.4962 99.4462 81.5494C99.4207 81.576 99.4008 81.5971 99.3866 81.6123C99.3795 81.62 99.3738 81.6261 99.3695 81.6308C99.3674 81.6331 99.3656 81.6351 99.3641 81.6366C99.3634 81.6374 99.3628 81.6381 99.3623 81.6387C99.362 81.639 99.3617 81.6394 99.3615 81.6395C99.3612 81.6399 99.3609 81.6402 100.101 82.3125ZM57.0354 102.088C56.4695 102.912 56.4698 102.912 56.47 102.913C56.4702 102.913 56.4704 102.913 56.4707 102.913C56.4711 102.913 56.4717 102.914 56.4724 102.914C56.4737 102.915 56.4754 102.916 56.4774 102.918C56.4815 102.92 56.487 102.924 56.494 102.929C56.5079 102.938 56.5275 102.951 56.5528 102.968C56.6032 103.001 56.676 103.049 56.7699 103.108C56.9576 103.227 57.2299 103.395 57.577 103.595C58.2706 103.994 59.2659 104.523 60.4835 105.053C62.9084 106.107 66.2678 107.184 69.907 107.184V105.184C66.6423 105.184 63.566 104.212 61.281 103.219C60.1437 102.724 59.2156 102.23 58.5744 101.861C58.2542 101.677 58.0063 101.524 57.8407 101.419C57.7579 101.367 57.6957 101.326 57.6554 101.3C57.6352 101.286 57.6205 101.276 57.6115 101.27C57.6069 101.267 57.6038 101.265 57.6021 101.264C57.6012 101.263 57.6007 101.263 57.6006 101.263C57.6005 101.263 57.6005 101.263 57.6006 101.263C57.6007 101.263 57.6009 101.263 57.6009 101.263C57.601 101.263 57.6012 101.263 57.0354 102.088ZM97.1312 79.9348C96.1595 79.6987 96.1594 79.6988 96.1594 79.699C96.1593 79.6991 96.1593 79.6993 96.1592 79.6995C96.1591 79.6999 96.159 79.7004 96.1589 79.7011C96.1586 79.7023 96.1581 79.7041 96.1576 79.7062C96.1566 79.7106 96.1551 79.7168 96.1532 79.7247C96.1494 79.7407 96.1439 79.7638 96.1369 79.7939C96.1228 79.8541 96.1025 79.9423 96.0768 80.057C96.0254 80.2864 95.9525 80.6219 95.8654 81.0516C95.6911 81.9107 95.4596 83.1471 95.2283 84.6653C94.766 87.6991 94.3025 91.871 94.3025 96.4123H96.3025C96.3025 92.0001 96.7534 87.9332 97.2054 84.9666C97.4313 83.4846 97.6569 82.2805 97.8255 81.4491C97.9098 81.0335 97.9798 80.7112 98.0284 80.4942C98.0527 80.3857 98.0717 80.3035 98.0844 80.2491C98.0907 80.222 98.0955 80.2017 98.0986 80.1886C98.1002 80.1821 98.1013 80.1773 98.1021 80.1744C98.1024 80.1729 98.1027 80.1719 98.1028 80.1713C98.1029 80.171 98.1029 80.1709 98.1029 80.1708C98.1029 80.1708 98.1029 80.1708 98.1029 80.1708C98.1029 80.1709 98.1029 80.171 97.1312 79.9348ZM94.3025 96.4123C94.3025 100.929 94.534 103.923 94.7647 106.496C94.9951 109.067 95.2188 111.167 95.2188 113.964H97.2188C97.2188 111.058 96.9844 108.859 96.7567 106.318C96.5292 103.78 96.3025 100.849 96.3025 96.4123H94.3025ZM95.2188 113.964C95.2188 119.397 93.0162 122.994 90.6804 124.682L91.8518 126.303C94.7847 124.184 97.2188 119.938 97.2188 113.964H95.2188ZM91.2661 124.493H71.4315V126.493H91.2661V124.493ZM71.4315 125.493C72.1553 126.183 72.1554 126.183 72.1556 126.183C72.1557 126.182 72.1558 126.182 72.156 126.182C72.1564 126.182 72.1568 126.181 72.1573 126.181C72.1583 126.18 72.1597 126.178 72.1615 126.176C72.165 126.173 72.1699 126.167 72.1762 126.161C72.1888 126.147 72.2068 126.128 72.23 126.103C72.2763 126.054 72.343 125.981 72.4272 125.889C72.5953 125.704 72.8332 125.437 73.1163 125.105C73.6814 124.443 74.4322 123.516 75.1689 122.464C75.9025 121.417 76.6399 120.219 77.1624 119.016C77.6756 117.835 78.0332 116.532 77.8644 115.319L75.8835 115.595C75.9773 116.269 75.7859 117.165 75.328 118.22C74.8792 119.253 74.2232 120.328 73.5305 121.317C72.8409 122.302 72.1326 123.177 71.5951 123.806C71.327 124.121 71.1028 124.372 70.9466 124.544C70.8686 124.63 70.8076 124.696 70.7667 124.74C70.7463 124.762 70.7309 124.778 70.721 124.789C70.716 124.794 70.7123 124.798 70.7101 124.8C70.709 124.801 70.7082 124.802 70.7078 124.803C70.7076 124.803 70.7075 124.803 70.7075 124.803C70.7075 124.803 70.7075 124.803 70.7075 124.803C70.7076 124.803 70.7077 124.803 71.4315 125.493ZM77.8643 115.319C77.4093 112.061 74.6783 100.148 76.1265 86.6889L74.1379 86.4749C72.6555 100.252 75.4539 112.518 75.8836 115.595L77.8643 115.319ZM76.1265 86.6886C76.4029 84.1117 76.8345 81.4807 77.4671 78.8494L75.5225 78.3819C74.8675 81.1063 74.4224 83.8229 74.1379 86.4753L76.1265 86.6886ZM76.87 115.457C76.8846 116.457 76.8848 116.457 76.8849 116.457C76.8851 116.457 76.8853 116.457 76.8856 116.457C76.8862 116.457 76.8871 116.457 76.8882 116.457C76.8905 116.457 76.8938 116.457 76.8983 116.457C76.9071 116.457 76.9203 116.456 76.9376 116.456C76.9722 116.456 77.0234 116.455 77.0901 116.454C77.2235 116.451 77.419 116.448 77.6681 116.443C78.1664 116.433 78.8792 116.418 79.7384 116.396C81.4561 116.352 83.7619 116.28 86.1095 116.17C88.4535 116.06 90.8545 115.911 92.7572 115.71C93.706 115.61 94.5527 115.495 95.2147 115.361C95.5443 115.294 95.8508 115.218 96.1108 115.129C96.3354 115.052 96.6602 114.923 96.9074 114.686L95.5224 113.243C95.6096 113.159 95.6432 113.175 95.4626 113.237C95.3175 113.287 95.1046 113.343 94.8178 113.401C94.2469 113.516 93.4724 113.624 92.5475 113.721C90.7031 113.916 88.3479 114.063 86.0156 114.172C83.687 114.282 81.3965 114.353 79.687 114.397C78.8326 114.419 78.124 114.434 77.6293 114.443C77.382 114.448 77.1882 114.452 77.0563 114.454C76.9904 114.455 76.94 114.456 76.9061 114.456C76.8892 114.457 76.8764 114.457 76.8679 114.457C76.8637 114.457 76.8605 114.457 76.8584 114.457C76.8573 114.457 76.8566 114.457 76.8561 114.457C76.8558 114.457 76.8556 114.457 76.8555 114.457C76.8554 114.457 76.8554 114.457 76.87 115.457ZM83.8923 85.7596H75.1283V87.7596H83.8923V85.7596ZM85.4721 96.0285H74.7372V98.0285H85.4721V96.0285ZM83.8923 106.558H75.6061V108.558H83.8923V106.558Z" fill="white"/>
</svg>
