<?xml version="1.0" encoding="UTF-8"?>
<svg id="Ebene_1" xmlns="http://www.w3.org/2000/svg" version="1.1" xmlns:xlink="http://www.w3.org/1999/xlink" viewBox="0 0 800 282.4">
  <!-- Generator: Adobe Illustrator 29.3.1, SVG Export Plug-In . SVG Version: 2.1.0 Build 151)  -->
  <defs>
    <style>
      .st0 {
        fill: #002df5;
      }

      .st1 {
        fill: #fff;
      }
    </style>
  </defs>
  <g>
    <polygon class="st1" points="103.1 282.4 132.8 171.5 201.9 171.5 196.5 191.7 162 191.7 156.6 211.8 191.1 211.8 185.7 232 151.2 232 137.6 282.4 103.1 282.4"/>
    <polygon class="st1" points="219.2 171.5 189.5 282.4 224 282.4 253.8 171.5 219.2 171.5"/>
    <polygon class="st1" points="275.9 282.4 300.2 191.7 265.7 191.7 271.1 171.5 374.8 171.5 369.4 191.7 334.8 191.7 310.5 282.4 275.9 282.4"/>
    <polygon class="st1" points="426.6 171.5 392 171.5 362.3 282.4 396.8 282.4 410.4 232 431.4 282.4 465.9 282.4 495.7 171.5 461.1 171.5 444.9 232 426.6 171.5"/>
    <polygon class="st1" points="483.3 282.4 513 171.5 582.1 171.5 576.7 191.7 542.1 191.7 535.4 216.9 570 216.9 564.5 237 530 237 523.2 262.3 557.8 262.3 552.4 282.4 483.3 282.4"/>
    <polygon class="st1" points="569.6 282.4 577.7 252.2 595 252.2 592.3 262.3 626.8 262.3 633.6 237 581.8 237 599.3 171.5 685.7 171.5 677.6 201.7 660.3 201.7 663 191.7 628.5 191.7 621.7 216.9 673.6 216.9 656 282.4 569.6 282.4"/>
    <polygon class="st1" points="673.2 282.4 681.4 252.2 698.6 252.2 695.9 262.3 730.5 262.3 737.2 237 685.4 237 703 171.5 789.4 171.5 781.3 201.7 764 201.7 766.7 191.7 732.1 191.7 725.4 216.9 777.2 216.9 759.6 282.4 673.2 282.4"/>
  </g>
  <polygon class="st0" points="161.5 0 150.7 40.3 116.1 40.3 118.8 30.3 67 30.3 58.9 60.5 231.7 60.5 207.5 151.3 138.2 151.3 146.3 121 180.9 121 189 90.8 137.2 90.8 104.7 211.8 70.2 211.8 86.4 151.3 0 151.3 10.8 111 45.4 111 42.7 121 94.5 121 102.6 90.8 16.2 90.8 40.5 0 161.5 0"/>
  <g>
    <path class="st0" d="M336.3,137.3c-.3.3-.6.6-.9.7-.3.2-.6.3-1,.3s-.7-.1-1-.3c-.3-.2-.7-.4-1.1-.7-.4-.2-.9-.5-1.5-.7s-1.2-.3-2-.3c-1.4,0-2.5.3-3.3.8s-1.4,1.3-1.6,2.3c-.2.6,0,1.1.2,1.5.3.4.7.7,1.3,1,.6.3,1.2.6,2,.8s1.6.5,2.4.8c.8.3,1.6.6,2.3,1.1.7.4,1.3.9,1.8,1.5.5.6.8,1.4,1,2.3.2.9,0,2-.3,3.2-.4,1.4-1,2.7-1.8,3.9-.8,1.2-1.8,2.3-3,3.2-1.2.9-2.6,1.6-4.1,2.1s-3.2.8-5,.8-1.9,0-2.9-.3c-1-.2-1.9-.5-2.7-.8-.9-.4-1.6-.8-2.3-1.3-.7-.5-1.3-1-1.7-1.6l3-3.3c.2-.2.5-.5.8-.6.3-.2.7-.2,1-.2s.8.1,1.2.4c.4.3.8.6,1.3.9.5.3,1,.6,1.7.9.6.3,1.5.4,2.4.4s2.4-.3,3.3-.8c.9-.6,1.5-1.5,1.8-2.7.2-.7.1-1.3-.1-1.7-.3-.4-.7-.8-1.3-1.1-.6-.3-1.2-.5-2-.8-.8-.2-1.6-.5-2.4-.7-.8-.3-1.6-.6-2.3-1-.7-.4-1.3-.9-1.8-1.6-.5-.6-.8-1.4-.9-2.4-.1-1,0-2.2.4-3.6.3-1.1.8-2.2,1.6-3.3.8-1.1,1.7-2,2.9-2.9,1.1-.8,2.5-1.5,3.9-2,1.5-.5,3.1-.8,4.8-.8s1.9,0,2.8.2c.9.1,1.7.4,2.4.6s1.4.6,2,1c.6.4,1.1.8,1.5,1.3l-2.7,3.3Z"/>
    <path class="st0" d="M374.4,131.2l-1.4,5.4h-12.9l-1.9,7.1h9.9l-1.4,5.2h-9.9l-1.9,7.2h12.9l-1.4,5.4h-20.2l8.1-30.3h20.2Z"/>
    <path class="st0" d="M380.8,161.5l8.1-30.3h11.5c2.2,0,4,.2,5.4.6,1.4.4,2.5.9,3.3,1.6.8.7,1.2,1.6,1.4,2.6.2,1,0,2.1-.3,3.4-.2.7-.5,1.3-.8,2-.4.6-.8,1.2-1.4,1.8-.6.6-1.3,1.1-2.1,1.5-.8.5-1.7.8-2.7,1.2,1.9.5,3.3,1.3,4,2.4.7,1.1.8,2.5.4,4.2-.3,1.3-.9,2.5-1.7,3.6-.8,1.1-1.8,2.1-3,2.9-1.2.8-2.6,1.5-4.2,1.9-1.6.5-3.3.7-5.2.7h-12.5ZM391.5,148.6l-2,7.5h5.1c1,0,1.8-.1,2.5-.4.7-.2,1.2-.5,1.7-.9.4-.4.8-.8,1.1-1.3.3-.5.4-.9.6-1.4.1-.6.2-1.1.2-1.5s-.2-.8-.5-1.1c-.3-.3-.7-.5-1.3-.7-.6-.2-1.3-.2-2.2-.2h-5.1ZM392.8,143.9h3.8c.8,0,1.5,0,2.2-.2.7-.1,1.3-.3,1.8-.6.5-.3,1-.7,1.3-1.1.4-.5.6-1.1.8-1.8.2-.7.3-1.3.2-1.8,0-.5-.2-.9-.6-1.2-.3-.3-.7-.5-1.3-.6-.6-.1-1.3-.2-2.1-.2h-4.3l-2,7.5Z"/>
    <path class="st0" d="M447.4,161.5h-5.6c-.6,0-1.1-.1-1.4-.4s-.5-.6-.6-1.1l-.4-5.3h-11.9l-3.3,5.3c-.2.4-.6.7-1.1,1.1-.5.3-1.1.5-1.7.5h-5.7l20.3-30.3h7.4l4,30.3ZM430.3,149.9h8.6l-.7-8.3c0-.5,0-1.1-.2-1.9s-.1-1.5-.1-2.3c-.5.8-.9,1.6-1.3,2.3-.4.7-.8,1.3-1.2,1.9l-5.1,8.3Z"/>
    <path class="st0" d="M484.4,137.3c-.3.3-.6.6-.9.7-.3.2-.6.3-1,.3s-.7-.1-1-.3c-.3-.2-.7-.4-1.1-.7-.4-.2-.9-.5-1.5-.7-.6-.2-1.2-.3-2-.3-1.4,0-2.5.3-3.3.8s-1.4,1.3-1.6,2.3c-.2.6,0,1.1.2,1.5s.7.7,1.3,1c.6.3,1.2.6,2,.8s1.6.5,2.4.8c.8.3,1.6.6,2.3,1.1.7.4,1.3.9,1.8,1.5s.8,1.4,1,2.3c.2.9,0,2-.3,3.2-.4,1.4-1,2.7-1.8,3.9-.8,1.2-1.8,2.3-3,3.2-1.2.9-2.6,1.6-4.1,2.1-1.5.5-3.2.8-5,.8s-1.9,0-2.9-.3-1.9-.5-2.7-.8c-.9-.4-1.6-.8-2.3-1.3-.7-.5-1.3-1-1.7-1.6l3-3.3c.2-.2.5-.5.8-.6.3-.2.7-.2,1-.2s.8.1,1.2.4c.4.3.8.6,1.3.9.5.3,1,.6,1.7.9.6.3,1.5.4,2.4.4s2.4-.3,3.3-.8c.9-.6,1.5-1.5,1.8-2.7.2-.7.1-1.3-.1-1.7-.3-.4-.7-.8-1.3-1.1s-1.2-.5-2-.8c-.8-.2-1.6-.5-2.4-.7-.8-.3-1.6-.6-2.3-1-.7-.4-1.3-.9-1.8-1.6-.5-.6-.8-1.4-.9-2.4-.1-1,0-2.2.4-3.6.3-1.1.8-2.2,1.6-3.3.8-1.1,1.7-2,2.9-2.9,1.1-.8,2.5-1.5,3.9-2,1.5-.5,3.1-.8,4.8-.8s1.9,0,2.8.2c.9.1,1.7.4,2.4.6s1.4.6,2,1c.6.4,1.1.8,1.5,1.3l-2.7,3.3Z"/>
    <path class="st0" d="M525,131.2l-1.5,5.6h-8.8l-6.6,24.7h-7.3l6.6-24.7h-8.8l1.5-5.6h24.9Z"/>
    <path class="st0" d="M537.2,161.5h-7.3l8.1-30.3h7.3l-8.1,30.3Z"/>
    <path class="st0" d="M581.7,161.5h-5.6c-.6,0-1.1-.1-1.4-.4s-.5-.6-.6-1.1l-.4-5.3h-11.9l-3.3,5.3c-.2.4-.6.7-1.1,1.1-.5.3-1.1.5-1.7.5h-5.7l20.3-30.3h7.4l4,30.3ZM564.7,149.9h8.6l-.7-8.3c0-.5,0-1.1-.2-1.9s-.1-1.5-.1-2.3c-.5.8-.9,1.6-1.3,2.3-.4.7-.8,1.3-1.2,1.9l-5.1,8.3Z"/>
    <path class="st0" d="M606.9,131.2c.2,0,.4,0,.5.2.2,0,.3.2.4.3.1.1.2.3.4.6l10,18.2c0-.6.2-1.1.3-1.7.1-.5.2-1.1.4-1.5l4.3-16h6.4l-8.1,30.3h-3.8c-.6,0-1,0-1.4-.2-.3-.2-.6-.5-.9-.9l-10-18c0,.5-.2,1-.3,1.5-.1.5-.2,1-.3,1.4l-4.4,16.2h-6.4l8.1-30.3h3.8c.3,0,.6,0,.8,0Z"/>
    <path class="st0" d="M666.6,151.3l-2.7,10.1h-7.3l8.1-30.3h11.1c2.2,0,4,.3,5.5.8,1.4.5,2.6,1.2,3.4,2.1.8.9,1.3,1.9,1.4,3.1.2,1.2,0,2.5-.3,3.9-.4,1.5-1,2.9-1.9,4.2-.8,1.3-1.9,2.3-3.2,3.2-1.3.9-2.8,1.6-4.5,2.1-1.7.5-3.7.8-5.8.8h-3.8ZM668,146h3.8c1.9,0,3.4-.4,4.4-1.3,1.1-.9,1.8-2.1,2.2-3.7.2-.7.2-1.3.2-1.9,0-.6-.3-1.1-.6-1.5-.3-.4-.8-.7-1.4-.9-.6-.2-1.4-.3-2.3-.3h-3.8l-2.6,9.6Z"/>
    <path class="st0" d="M721.9,131.2l-1.4,5.4h-12.9l-2.1,7.7h10.7l-1.5,5.4h-10.7l-3.2,11.8h-7.3l8.1-30.3h20.2Z"/>
    <path class="st0" d="M754,161.5h-5.6c-.6,0-1.1-.1-1.4-.4s-.5-.6-.6-1.1l-.4-5.3h-11.9l-3.3,5.3c-.2.4-.6.7-1.1,1.1-.5.3-1.1.5-1.7.5h-5.7l20.3-30.3h7.4l4,30.3ZM737,149.9h8.6l-.7-8.3c0-.5,0-1.1-.2-1.9s0-1.5-.1-2.3c-.5.8-.9,1.6-1.3,2.3-.4.7-.8,1.3-1.2,1.9l-5.1,8.3Z"/>
    <path class="st0" d="M779.9,155.9c1,0,1.9-.2,2.7-.5.9-.3,1.6-.8,2.3-1.3.7-.6,1.3-1.3,1.8-2.1.5-.8.9-1.8,1.2-2.9l4.8-17.9h7.3l-4.8,17.9c-.5,1.9-1.3,3.6-2.3,5.1-1,1.6-2.3,2.9-3.8,4-1.5,1.1-3.1,2-4.9,2.6-1.8.6-3.8.9-5.9.9s-3.9-.3-5.4-.9c-1.5-.6-2.7-1.5-3.5-2.6-.9-1.1-1.4-2.5-1.6-4s0-3.3.4-5.1l4.8-17.9h7.3l-4.8,17.9c-.3,1.1-.4,2-.3,2.9,0,.8.3,1.6.6,2.1.4.6.9,1,1.6,1.4.7.3,1.5.5,2.5.5Z"/>
  </g>
</svg>